<?xml version="1.0" encoding="utf-8"?>
<!-- Generator: Adobe Illustrator 19.2.1, SVG Export Plug-In . SVG Version: 6.00 Build 0)  -->
<svg version="1.1" id="Layer_1" xmlns="http://www.w3.org/2000/svg" xmlns:xlink="http://www.w3.org/1999/xlink" x="0px" y="0px"
	 viewBox="0 0 640 480" style="enable-background:new 0 0 640 480;" xml:space="preserve">
<style type="text/css">
	.st0{fill:#FFFFFF;}
</style>
<g>
	<path class="st0" d="M200.2,235.2c17.6-17.2,28.6-41.2,28.6-67.7c0-52.2-42.5-94.7-94.7-94.7c-52.2,0-94.7,42.5-94.7,94.7
		c0,26.5,11,50.5,28.6,67.7c-17.6,17.2-28.6,41.2-28.6,67.7c0,52.2,42.5,94.7,94.7,94.7c52.2,0,94.7-42.5,94.7-94.7
		C228.7,276.4,217.8,252.5,200.2,235.2 M134,326.6c-13.1,0-23.7-10.6-23.7-23.7c0-13.1,10.6-23.7,23.7-23.7
		c13.1,0,23.7,10.6,23.7,23.7C157.7,316,147.1,326.6,134,326.6 M134,143.8c13.1,0,23.7,10.6,23.7,23.7c0,13.1-10.6,23.7-23.7,23.7
		c-13.1,0-23.7-10.6-23.7-23.7C110.3,154.5,120.9,143.8,134,143.8"/>
	<path class="st0" d="M399.1,235.2c17.6-17.2,28.6-41.2,28.6-67.7c0-52.2-42.5-94.7-94.7-94.7c-52.2,0-94.7,42.5-94.7,94.7
		c0,26.5,11,50.5,28.6,67.7c-17.6,17.2-28.6,41.2-28.6,67.7c0,52.2,42.5,94.7,94.7,94.7c52.2,0,94.7-42.5,94.7-94.7
		C427.7,276.4,416.7,252.5,399.1,235.2 M333,326.6c-13.1,0-23.7-10.6-23.7-23.7c0-13.1,10.6-23.7,23.7-23.7
		c13.1,0,23.7,10.6,23.7,23.7C356.6,316,346,326.6,333,326.6 M333,143.8c13.1,0,23.7,10.6,23.7,23.7c0,13.1-10.6,23.7-23.7,23.7
		c-13.1,0-23.7-10.6-23.7-23.7C309.3,154.5,319.9,143.8,333,143.8"/>
</g>
<path class="st0" d="M610,220.5l-81.5-107.1c-3.5-4.8-10.6-4.8-14.1,0l-81.5,107.1c-4.2,5.8-0.1,13.9,7.1,13.9h45.3
	c2.1,0,3.8,1.7,3.8,3.8v123.1c0,5.8,4.7,10.4,10.4,10.4h43.5c5.8,0,10.4-4.7,10.4-10.4V238.1c0-2.1,1.7-3.8,3.8-3.8H603
	C610.1,234.4,614.2,226.3,610,220.5z"/>
</svg>
