<?xml version="1.0" encoding="utf-8"?>
<!-- Generator: Adobe Illustrator 19.2.1, SVG Export Plug-In . SVG Version: 6.00 Build 0)  -->
<svg version="1.1" id="Layer_2" xmlns="http://www.w3.org/2000/svg" xmlns:xlink="http://www.w3.org/1999/xlink" x="0px" y="0px"
	 viewBox="0 0 622.2 333.8" style="enable-background:new 0 0 622.2 333.8;" xml:space="preserve">
<style type="text/css">
	.st0{fill:#E33B62;}
	.st1{fill:#FFFFFF;}
	.st2{fill:#CC2950;}
</style>
<path class="st0" d="M235.4,246.9h-18.1c-1.1,0-2,0.9-2,2v2.5c0,1.1,0.9,2,2,2h5.6v18.1c0,1.1,0.9,2,2,2h3c1.1,0,2-0.9,2-2v-18.1
	h5.6c1.1,0,2-0.9,2-2v-2.5C237.4,247.8,236.5,246.9,235.4,246.9z"/>
<path class="st0" d="M242.6,246.9h-3c-1.1,0-2,0.9-2,2v22.7c0,1.1,0.9,2,2,2h3c1.1,0,2-0.9,2-2v-22.7
	C244.6,247.8,243.7,246.9,242.6,246.9z"/>
<path class="st0" d="M268.5,261h-3c-1,0-1.9,0.8-2,1.8c-0.1,1.4-0.8,4.7-4.5,4.7c-5,0-5.7-4.7-5.7-7.5c0-1.7,0.4-7.2,5.7-7.2
	c1.4,0,3.8,0.4,4.4,3.2c0.2,0.9,1,1.6,2,1.6h3c0.6,0,1.1-0.3,1.5-0.7c0.4-0.4,0.6-1,0.5-1.6c-0.8-5.5-5.2-9.1-11.3-9.1
	c-7.6,0-12.7,5.6-12.7,13.9c0,8.4,4.9,13.8,12.5,13.8c6.7,0,11.1-4.1,11.8-10.9c0.1-0.6-0.1-1.1-0.5-1.5
	C269.6,261.3,269,261,268.5,261z"/>
<path class="st0" d="M335.3,251.5V249c0-1.1-0.9-2-2-2h-18.1c-0.6,0-1.1,0.2-1.5,0.6c-0.4-0.4-0.9-0.6-1.5-0.6h-15.6
	c-1.1,0-2,0.9-2,2v22.4c0-0.3-0.2-0.6-0.4-0.9l-8.9-12.1l8.3-7.9c0.6-0.6,0.8-1.4,0.5-2.2s-1-1.3-1.9-1.3h-3.9c-0.5,0-1,0.2-1.4,0.6
	l-8.1,8v-6.5c0-1.1-0.9-2-2-2h-3c-1.1,0-2,0.9-2,2v22.7c0,1.1,0.9,2,2,2h3c1.1,0,2-0.9,2-2v-7.1l1.5-1.4l6.9,9.6
	c0.4,0.5,1,0.8,1.6,0.8h3.8c0.8,0,1.4-0.4,1.8-1.1c0.1-0.3,0.2-0.5,0.2-0.8c0.1,1.1,0.9,1.9,2,1.9h15.7c1.1,0,2-0.9,2-2V269
	c0-1.1-0.9-2-2-2h-10.7v-3.8h9.8c1.1,0,2-0.9,2-2v-2.5c0-1.1-0.9-2-2-2h-9.8v-3.2h10.6c0.6,0,1.1-0.2,1.5-0.6
	c0.4,0.4,0.9,0.6,1.5,0.6h5.6v18.1c0,1.1,0.9,2,2,2h3c1.1,0,2-0.9,2-2v-18.1h5.6C334.4,253.5,335.3,252.6,335.3,251.5z"/>
<path class="st0" d="M347.5,256.9c-0.4-0.1-0.8-0.2-1.3-0.3c-2.5-0.5-4.4-1-4.4-1.8c0-0.5,0-1.9,3.1-1.9c2.9,0,3.5,1.4,3.6,2.8
	c0.1,1,1,1.8,2,1.8h2.9c0.5,0,1.1-0.2,1.4-0.6s0.6-0.9,0.6-1.5c-0.2-5.6-4.2-9.1-10.3-9.1c-6,0-10.2,3.5-10.2,8.6c0,6,5.8,7.3,8.8,8
	l0.8,0.2c3.5,0.7,4.9,1.2,4.9,2.3c0,0.5,0,2.1-3.7,2.1c-1.4,0-4.6-0.3-4.6-3.5c0-1.1-0.9-2-2-2H336c-1.1,0-2,0.9-2,2
	c0,6.1,4.5,10,11.4,10c5.2,0,10.9-2.7,10.9-8.8C356.3,258.9,350.1,257.5,347.5,256.9z"/>
<path class="st0" d="M380.8,258.5l-8-6.1c-0.4-0.3-1-0.4-1.5-0.1c-0.5,0.2-0.8,0.7-0.8,1.3v2.9h-8.8c-0.8,0-1.5,0.7-1.5,1.5v3.3
	c0,0.8,0.7,1.5,1.5,1.5h8.8v3c0,0.5,0.3,1,0.8,1.3c0.2,0.1,0.4,0.2,0.6,0.2c0.3,0,0.6-0.1,0.8-0.3l0,0l8-6.1
	c0.4-0.3,0.6-0.7,0.6-1.1S381.2,258.8,380.8,258.5z"/>
<path class="st1" d="M545.9,0H76.2C34.2,0,0,34.2,0,76.2v181.3c0,42,34.2,76.2,76.2,76.2h469.7c42,0,76.2-34.2,76.2-76.2V76.2
	C622.1,34.2,587.9,0,545.9,0z M617.6,257.6c0,39.6-32.2,71.8-71.8,71.8H76.2c-39.6,0-71.8-32.2-71.8-71.8V76.2
	c0-39.6,32.2-71.8,71.8-71.8h469.7c39.6,0,71.8,32.2,71.8,71.8v181.4L617.6,257.6L617.6,257.6z"/>
<path class="st1" d="M234.7,99.4h3c1.1,0,2-0.9,2-2v-8.4h8.4c1.1,0,2-0.9,2-2v-2.5c0-1.1-0.9-2-2-2h-8.4v-3.2h9.9c1.1,0,2-0.9,2-2
	v-2.5c0-1.1-0.9-2-2-2h-14.9c-1.1,0-2,0.9-2,2v22.7C232.7,98.5,233.6,99.4,234.7,99.4z"/>
<path class="st1" d="M254.5,99.4h15.7c1.1,0,2-0.9,2-2v-2.5c0-1.1-0.9-2-2-2h-10.7v-3.8h9.8c1.1,0,2-0.9,2-2v-2.5c0-1.1-0.9-2-2-2
	h-9.8v-3.2h10.6c1.1,0,2-0.9,2-2v-2.5c0-1.1-0.9-2-2-2h-15.6c-1.1,0-2,0.9-2,2v22.7C252.5,98.5,253.4,99.4,254.5,99.4z"/>
<path class="st1" d="M275.5,99.4h10.9c5.8,0,8.9-4.3,8.9-8.5c0-2.5-0.9-4.5-2.6-5.9c1-1.3,1.6-2.9,1.6-4.7c0-2.7-1.3-5.1-3.6-6.4
	c-1.8-1.1-4.7-1.1-7-1.1h-8.2c-1.1,0-2,0.9-2,2v22.7C273.5,98.5,274.4,99.4,275.5,99.4z M288.3,90.8c0,1.4-0.8,2.1-2.3,2.1h-5.6
	v-3.8h4.9C288.3,89.1,288.3,90.2,288.3,90.8z M287.4,80.9c0,0.8,0,1.6-2.8,1.6h-4v-3.2h4C287.4,79.3,287.4,79.9,287.4,80.9z"/>
<path class="st1" d="M309.5,83.3h3.8v14.1c0,1.1,0.9,2,2,2h2.7c1.1,0,2-0.9,2-2V74.9c0-1.1-0.9-2-2-2H316c-1,0-1.8,0.7-2,1.6
	c-0.2,1.3-0.9,2.6-4.5,2.6c-1.1,0-2,0.9-2,2v2.2C307.5,82.4,308.4,83.3,309.5,83.3z"/>
<path class="st1" d="M334.8,99.8c9.5,0,9.5-9.8,9.5-13.4c0-3.7,0-13.5-9.5-13.5s-9.5,9.8-9.5,13.5C325.3,90.1,325.3,99.8,334.8,99.8
	z M334.8,93.4c-1.9,0-2.6-1.9-2.6-7.1c0-5.1,0.7-7,2.6-7s2.6,1.9,2.6,7C337.5,91.5,336.7,93.4,334.8,93.4z"/>
<path class="st1" d="M127.1,208.7c-0.4-0.1-0.9-0.2-1.3-0.3c-2.5-0.5-4.4-1-4.4-1.8c0-0.5,0-1.9,3.1-1.9c2.9,0,3.5,1.4,3.6,2.8
	c0.1,1,1,1.8,2,1.8h2.9c0.5,0,1.1-0.2,1.4-0.6s0.6-0.9,0.6-1.5c-0.2-5.6-4.2-9.1-10.3-9.1c-6,0-10.2,3.6-10.2,8.6c0,6,5.8,7.3,8.8,8
	l0.8,0.2c3.5,0.7,4.9,1.2,4.9,2.3c0,0.5,0,2.1-3.7,2.1c-1.4,0-4.6-0.3-4.6-3.5c0-1.1-0.9-2-2-2h-2.9c-1.1,0-2,0.9-2,2
	c0,6.1,4.5,10,11.4,10c5.2,0,10.9-2.7,10.9-8.8C135.9,210.7,129.7,209.3,127.1,208.7z"/>
<path class="st1" d="M157.1,198.8h-3c-1.1,0-2,0.9-2,2v7.7h-7.9v-7.7c0-1.1-0.9-2-2-2h-3c-1.1,0-2,0.9-2,2v22.7c0,1.1,0.9,2,2,2h3
	c1.1,0,2-0.9,2-2v-8.4h7.9v8.4c0,1.1,0.9,2,2,2h3c1.1,0,2-0.9,2-2v-22.7C159.1,199.7,158.2,198.8,157.1,198.8z"/>
<path class="st1" d="M182.7,218.3c0-0.4-0.1-0.9-0.1-1.3c-0.1-1-0.3-3-1.6-4.5c1.4-1.4,2.1-3.4,2.1-5.8c0-4.7-3.6-7.9-8.9-7.9h-10.7
	c-1.1,0-2,0.9-2,2v22.7c0,1.1,0.9,2,2,2h3c1.1,0,2-0.9,2-2v-7.7h5.4c1.1,0,1.5,0.1,1.8,2.4c0,0,0,0.1,0,0.1c0.1,0.7,0.2,1.6,0.2,2.3
	c0.1,1.6,0.1,3.1,1.1,4.2c0.4,0.4,0.9,0.6,1.5,0.6h3.4c0.8,0,1.5-0.4,1.8-1.1c0.3-0.7,0.2-1.5-0.3-2.1
	C182.9,221.4,182.8,219.8,182.7,218.3z M168.6,205.3h5.5c1.5,0,2,0.5,2,1.9c0,1,0,2-3.2,2h-4.3V205.3z"/>
<path class="st1" d="M190.1,198.8h-3c-1.1,0-2,0.9-2,2v22.7c0,1.1,0.9,2,2,2h3c1.1,0,2-0.9,2-2v-22.7
	C192.1,199.7,191.2,198.8,190.1,198.8z"/>
<path class="st1" d="M214.8,198.8h-2.9c-1.1,0-2,0.9-2,2v11.7l-8.3-12.8c-0.4-0.6-1-0.9-1.7-0.9h-3.2c-1.1,0-2,0.9-2,2v22.7
	c0,1.1,0.9,2,2,2h2.9c1.1,0,2-0.9,2-2v-11.5l8.2,12.6c0.4,0.6,1,0.9,1.7,0.9h3.3c1.1,0,2-0.9,2-2v-22.7
	C216.8,199.7,215.9,198.8,214.8,198.8z"/>
<path class="st1" d="M237,218.9h-10.7v-3.8h9.8c1.1,0,2-0.9,2-2v-2.5c0-1.1-0.9-2-2-2h-9.8v-3.2h10.6c1.1,0,2-0.9,2-2v-2.5
	c0-1.1-0.9-2-2-2h-15.6c-1.1,0-2,0.9-2,2v22.7c0,1.1,0.9,2,2,2H237c1.1,0,2-0.9,2-2v-2.5C239,219.8,238.1,218.9,237,218.9z"/>
<path class="st1" d="M264,200c-0.3-0.8-1-1.3-1.9-1.3h-3.3c-0.8,0-1.6,0.5-1.9,1.3l-8.9,22.7c-0.2,0.6-0.2,1.3,0.2,1.9
	c0.4,0.5,1,0.9,1.7,0.9h3.1c0.8,0,1.6-0.5,1.9-1.3l2.1-5.5h6.8l2,5.5c0.3,0.8,1,1.3,1.9,1.3h3.3c0.7,0,1.3-0.3,1.7-0.9
	c0.4-0.5,0.5-1.2,0.2-1.9L264,200z M259.4,212.1l1-2.8l1,2.8H259.4z"/>
<path class="st1" d="M292.9,198.8h-3c-1.1,0-2,0.9-2,2v14.5c0,2.9-1.2,4.2-3.9,4.2c-2.9,0-4.3-1.3-4.3-4.2v-14.5c0-1.1-0.9-2-2-2h-3
	c-1.1,0-2,0.9-2,2v14.5c0,6.9,4,10.7,11.3,10.7c6.8,0,10.9-4,10.9-10.7v-14.5C294.9,199.7,294,198.8,292.9,198.8z"/>
<path class="st1" d="M307.1,198.8h-7.8c-1.1,0-2,0.9-2,2v22.7c0,1.1,0.9,2,2,2h7.8c5.9,0,12.9-2.4,12.9-13.9
	C320,203.3,315.4,198.8,307.1,198.8z M307.4,218.9h-3v-13.6h3.1c3.3,0,5.6,1.1,5.6,6.7C313,216.6,311.1,218.9,307.4,218.9z"/>
<path class="st1" d="M326.4,198.8h-3c-1.1,0-2,0.9-2,2v22.7c0,1.1,0.9,2,2,2h3c1.1,0,2-0.9,2-2v-22.7
	C328.4,199.7,327.5,198.8,326.4,198.8z"/>
<path class="st1" d="M350.8,203.3v-2.5c0-1.1-0.9-2-2-2h-18.1c-1.1,0-2,0.9-2,2v2.5c0,1.1,0.9,2,2,2h5.6v18.1c0,1.1,0.9,2,2,2h3
	c1.1,0,2-0.9,2-2v-18.1h5.6C349.9,205.3,350.8,204.4,350.8,203.3z"/>
<path class="st1" d="M362.5,198.2c-8.8,0-12.9,7.2-12.9,13.9s4,13.9,12.9,13.9s12.9-7.2,12.9-13.9S371.3,198.2,362.5,198.2z
	 M362.5,219.4c-5.6,0-5.8-6.1-5.8-7.3s0.3-7.3,5.8-7.3s5.8,6.1,5.8,7.3S368,219.4,362.5,219.4z"/>
<path class="st1" d="M397.7,218.3c0-0.4-0.1-0.9-0.1-1.3c-0.1-1.1-0.3-3-1.6-4.5c1.4-1.4,2.1-3.4,2.1-5.8c0-4.7-3.6-7.9-8.9-7.9
	h-10.7c-1.1,0-2,0.9-2,2v22.7c0,1.1,0.9,2,2,2h3c1.1,0,2-0.9,2-2v-7.7h5.4c1.1,0,1.5,0.1,1.8,2.4c0,0,0,0.1,0,0.1
	c0.1,0.7,0.2,1.6,0.2,2.3c0.1,1.6,0.1,3.1,1.1,4.2c0.4,0.4,0.9,0.6,1.5,0.6h3.4c0.8,0,1.5-0.4,1.8-1.1s0.2-1.5-0.3-2.1
	C397.9,221.4,397.8,219.8,397.7,218.3z M383.6,205.3h5.5c1.5,0,2,0.5,2,1.9c0,1,0,2-3.2,2h-4.3V205.3z"/>
<path class="st1" d="M405.1,198.8h-3c-1.1,0-2,0.9-2,2v22.7c0,1.1,0.9,2,2,2h3c1.1,0,2-0.9,2-2v-22.7
	C407.1,199.7,406.2,198.8,405.1,198.8z"/>
<path class="st1" d="M429.8,198.8h-3c-1.1,0-2,0.9-2,2v14.5c0,2.9-1.2,4.2-3.9,4.2c-2.9,0-4.3-1.3-4.3-4.2v-14.5c0-1.1-0.9-2-2-2h-3
	c-1.1,0-2,0.9-2,2v14.5c0,6.9,4,10.7,11.3,10.7c6.8,0,10.9-4,10.9-10.7v-14.5C431.8,199.7,430.9,198.8,429.8,198.8z"/>
<path class="st1" d="M458.9,198.8h-4.1c-0.8,0-1.6,0.5-1.9,1.3l-5.3,14.1l-5.3-14.1c-0.3-0.8-1-1.3-1.9-1.3h-4.1c-1.1,0-2,0.9-2,2
	v22.7c0,1.1,0.9,2,2,2h2.9c1.1,0,2-0.9,2-2v-8l3.3,8.7c0.3,0.8,1,1.3,1.9,1.3h2.6c0.8,0,1.6-0.5,1.9-1.3l3.3-8.7v8c0,1.1,0.9,2,2,2
	h2.9c1.1,0,2-0.9,2-2v-22.7C460.9,199.7,460,198.8,458.9,198.8z"/>
<path class="st1" d="M126.7,166.9v-4.2c0-1.4-1.1-2.5-2.5-2.5h-17.4v-30.9c0-1.4-1.1-2.5-2.5-2.5h-5c-1.4,0-2.5,1.1-2.5,2.5v37.6
	c0,1.4,1.1,2.5,2.5,2.5h24.9C125.6,169.4,126.7,168.3,126.7,166.9z"/>
<path class="st1" d="M147.1,125.9c-14.1,0-20.5,11.5-20.5,22.2c0,10.7,6.4,22.2,20.5,22.2s20.5-11.5,20.5-22.2
	C167.7,137.4,161.2,125.9,147.1,125.9z M147.1,161.1c-7.8,0-10.5-7-10.5-13s2.8-13,10.5-13c7.8,0,10.5,7,10.5,13
	S154.9,161.1,147.1,161.1z"/>
<path class="st1" d="M187.3,170.3c8.3,0,17.2-4.3,17.2-13.7c0-10.1-9.4-12.3-14-13.3c-0.7-0.2-1.4-0.3-2.1-0.5c-5-1.1-8-1.9-8-3.8
	c0-2.6,2-3.9,5.9-3.9c5.6,0,6.6,3.1,6.8,5.5c0.1,1.3,1.2,2.2,2.5,2.2h4.7c0.7,0,1.3-0.3,1.8-0.8c0.5-0.5,0.7-1.1,0.7-1.8
	c-0.3-9-6.5-14.3-16.4-14.3c-11.2,0-16.1,6.8-16.1,13.5c0,9.3,8.8,11.2,14,12.4l1.3,0.3c6,1.3,8.8,2.2,8.8,4.7c0,2.9-2.4,4.3-7,4.3
	c-2,0-8.5-0.5-8.5-6.6c0-1.4-1.1-2.5-2.5-2.5h-4.7c-1.4,0-2.5,1.1-2.5,2.5C169.2,164.1,176.3,170.3,187.3,170.3z"/>
<path class="st1" d="M252.9,169.4h5.5c0.8,0,1.6-0.4,2.1-1.1c0.5-0.7,0.6-1.6,0.3-2.3L246,128.4c-0.4-1-1.3-1.6-2.3-1.6h-5.5
	c-1,0-2,0.6-2.3,1.6L221.2,166c-0.3,0.8-0.2,1.6,0.3,2.3c0.5,0.7,1.2,1.1,2.1,1.1h5.2c1,0,2-0.6,2.3-1.6l3.6-9.7H247l3.5,9.7
	C250.9,168.7,251.8,169.4,252.9,169.4z M238,148.8l2.8-7.8l2.8,7.8H238z"/>
<path class="st1" d="M294.7,126.8h-4.7c-1.4,0-2.5,1.1-2.5,2.5v22.2l-15.3-23.6c-0.5-0.7-1.2-1.1-2.1-1.1h-5.3
	c-1.4,0-2.5,1.1-2.5,2.5v37.6c0,1.4,1.1,2.5,2.5,2.5h4.7c1.4,0,2.5-1.1,2.5-2.5V145l15.2,23.3c0.5,0.7,1.2,1.1,2.1,1.1h5.5
	c1.4,0,2.5-1.1,2.5-2.5v-37.6C297.2,127.9,296,126.8,294.7,126.8z"/>
<path class="st1" d="M321.5,170.3c4.1,0,7.9-1.2,10.8-3.3l0.2,0.6c0.3,1.1,1.3,1.8,2.4,1.8h3.2c1.4,0,2.5-1.1,2.5-2.5v-19.8
	c0-1.4-1.1-2.5-2.5-2.5h-16.5c-1.4,0-2.5,1.1-2.5,2.5v4.2c0,1.4,1.1,2.5,2.5,2.5h9.4c-0.3,1.8-1.1,3.3-2.2,4.5
	c-1.7,1.8-4.2,2.8-7.2,2.8c-5.2,0-10.4-3.9-10.4-12.5c0-2.2,0.5-13.5,10.4-13.5c2.8,0,7.8,0.8,8.7,6.2c0.2,1.2,1.2,2.1,2.5,2.1h5
	c0.7,0,1.4-0.3,1.9-0.9c0.5-0.6,0.7-1.3,0.6-2c-1.5-9.3-8.3-14.6-18.6-14.6c-12.2,0-20.4,9.2-20.4,22.9
	C301.1,159.2,308.2,170.3,321.5,170.3z"/>
<path class="st1" d="M376.7,162.7c0-1.4-1.1-2.5-2.5-2.5h-18.6v-8h17c1.4,0,2.5-1.1,2.5-2.5v-4.2c0-1.4-1.1-2.5-2.5-2.5h-17v-7H374
	c1.4,0,2.5-1.1,2.5-2.5v-4.2c0-1.4-1.1-2.5-2.5-2.5h-26c-1.4,0-2.5,1.1-2.5,2.5v37.6c0,1.4,1.1,2.5,2.5,2.5h26.1
	c1.4,0,2.5-1.1,2.5-2.5V162.7z"/>
<path class="st1" d="M410.3,162.7c0-1.4-1.1-2.5-2.5-2.5h-17.4v-30.9c0-1.4-1.1-2.5-2.5-2.5h-5c-1.4,0-2.5,1.1-2.5,2.5v37.6
	c0,1.4,1.1,2.5,2.5,2.5h24.9c1.4,0,2.5-1.1,2.5-2.5V162.7z"/>
<path class="st1" d="M414.8,169.4h26.1c1.4,0,2.5-1.1,2.5-2.5v-4.2c0-1.4-1.1-2.5-2.5-2.5h-18.6v-8h17c1.4,0,2.5-1.1,2.5-2.5v-4.2
	c0-1.4-1.1-2.5-2.5-2.5h-17v-7h18.5c1.4,0,2.5-1.1,2.5-2.5v-4.2c0-1.4-1.1-2.5-2.5-2.5h-26c-1.4,0-2.5,1.1-2.5,2.5v37.6
	C412.3,168.3,413.4,169.4,414.8,169.4z"/>
<path class="st1" d="M466.2,143.3c-0.7-0.2-1.4-0.3-2.1-0.5c-5-1.1-8-1.9-8-3.8c0-2.6,2-3.9,5.9-3.9c5.6,0,6.6,3.1,6.8,5.5
	c0.1,1.3,1.2,2.2,2.5,2.2h4.7c0.7,0,1.3-0.3,1.8-0.8c0.5-0.5,0.7-1.1,0.7-1.8c-0.3-9-6.5-14.3-16.4-14.3c-11.2,0-16.1,6.8-16.1,13.5
	c0,9.3,8.8,11.2,14,12.4l1.3,0.3c6,1.3,8.8,2.2,8.8,4.7c0,2.9-2.4,4.3-7,4.3c-2,0-8.5-0.5-8.5-6.6c0-1.4-1.1-2.5-2.5-2.5h-4.7
	c-1.4,0-2.5,1.1-2.5,2.5c0,9.6,7.1,15.8,18,15.8c8.3,0,17.2-4.3,17.2-13.7C480.2,146.5,470.8,144.3,466.2,143.3z"/>
<g>
	<path class="st2" d="M115,258.3l20-10.9c0,0,0.2,0.7,0.5,1.2c1.2,2.2,3.5,2.3,5.9,1c3.1-1.7,3.4-3.6,2.5-5.2
		c-3.9-7.1-28.1,16-36.1,1.3c-5.9-10.8-0.7-14.9,16.8-24.4c19.1-10.4,23-11.8,27.6-3.3c0.3,0.5,0.5,1.3,0.5,1.3l-18.6,10.1
		c0,0-0.2-0.8-0.5-1.3c-1-1.9-2.6-2.2-5.7-0.6c-2.6,1.4-4,2.5-2.8,4.6c3.7,6.8,28.8-15.8,36.5-1.6c6.2,11.4,1,15.5-17,25.3
		c-17.5,9.5-24.4,12.6-29.3,3.7C115.2,258.9,115,258.3,115,258.3z"/>
	<path class="st2" d="M199.1,226.3c-20.7,11.2-25.8,12.7-34.8-3.8s-4.9-20.1,15.7-31.3c20.7-11.2,25.9-12.7,34.8,3.8
		C223.9,211.5,219.8,215.1,199.1,226.3z M183.2,196.9c-5.2,2.8-4.5,5.2,0.8,14.9c5.3,9.8,7,11.6,12.2,8.8s4.5-5.2-0.8-15
		C190,195.9,188.3,194.1,183.2,196.9z"/>
	<path class="st2" d="M245.4,189.1l16-8.7l4.8,8.7l-35.6,19.3l-18.5-34l19.6-10.6L245.4,189.1z"/>
	<path class="st2" d="M270.4,186.9l-18.5-34l24.2-13.2c19.2-10.5,25.3-12.5,34,3.5s3.7,20-15.5,30.5L270.4,186.9z M273.8,148.9
		l11.8,21.6l4.1-2.2c5.2-2.8,5.6-5.7,0.8-14.4c-4.8-8.8-7.4-10-12.6-7.2L273.8,148.9z"/>
	<path class="st2" d="M364.9,136.2c-20.7,11.2-25.8,12.7-34.8-3.8s-4.9-20.1,15.7-31.3c20.7-11.2,25.9-12.7,34.8,3.8
		C389.6,121.5,385.5,125,364.9,136.2z M348.9,106.8c-5.2,2.8-4.5,5.2,0.8,14.9c5.3,9.8,7,11.6,12.2,8.8s4.5-5.2-0.8-15
		C355.7,105.8,354.1,104,348.9,106.8z"/>
	<path class="st2" d="M436.4,80.7c5,9.3,1.2,16-16.7,25.8c-17.8,9.7-25.6,9.2-30.6,0l-11.8-21.7l19.1-10.4l11.8,21.7
		c2,3.6,3.8,5.9,7.9,3.7c4.1-2.2,3.2-5.1,1.3-8.7l-11.8-21.7l19-10.4L436.4,80.7z"/>
	<path class="st2" d="M477.5,41.6l-12.4,6.7l13.7,25.3l-19.6,10.6L445.5,59l-12.9,7l-4.8-8.7l44.9-24.4L477.5,41.6z"/>
</g>
</svg>
