<?xml version="1.0" encoding="utf-8"?>
<!-- Generator: Adobe Illustrator 19.2.1, SVG Export Plug-In . SVG Version: 6.00 Build 0)  -->
<svg version="1.1" id="Layer_2" xmlns="http://www.w3.org/2000/svg" xmlns:xlink="http://www.w3.org/1999/xlink" x="0px" y="0px"
	 viewBox="0 0 622.2 333.8" style="enable-background:new 0 0 622.2 333.8;" xml:space="preserve">
<style type="text/css">
	.st0{fill:#E33B62;}
	.st1{fill:#FFFFFF;}
	.st2{fill:#CC2950;}
</style>
<path class="st0" d="M235.4,246.9h-18.1c-1.1,0-2,0.9-2,2v2.5c0,1.1,0.9,2,2,2h5.6v18.1c0,1.1,0.9,2,2,2h3c1.1,0,2-0.9,2-2v-18.1
	h5.6c1.1,0,2-0.9,2-2v-2.5C237.4,247.8,236.5,246.9,235.4,246.9z"/>
<path class="st0" d="M242.6,246.9h-3c-1.1,0-2,0.9-2,2v22.7c0,1.1,0.9,2,2,2h3c1.1,0,2-0.9,2-2v-22.7
	C244.6,247.8,243.7,246.9,242.6,246.9z"/>
<path class="st0" d="M268.5,261h-3c-1,0-1.9,0.8-2,1.8c-0.1,1.4-0.8,4.7-4.5,4.7c-5,0-5.7-4.7-5.7-7.5c0-1.7,0.4-7.2,5.7-7.2
	c1.4,0,3.8,0.4,4.4,3.2c0.2,0.9,1,1.6,2,1.6h3c0.6,0,1.1-0.3,1.5-0.7c0.4-0.4,0.6-1,0.5-1.6c-0.8-5.5-5.2-9.1-11.3-9.1
	c-7.6,0-12.7,5.6-12.7,13.9c0,8.4,4.9,13.8,12.5,13.8c6.7,0,11.1-4.1,11.8-10.9c0.1-0.6-0.1-1.1-0.5-1.5
	C269.6,261.3,269,261,268.5,261z"/>
<path class="st0" d="M335.3,251.5v-2.5c0-1.1-0.9-2-2-2h-18.1c-0.6,0-1.1,0.2-1.5,0.6c-0.4-0.4-0.9-0.6-1.5-0.6h-15.6
	c-1.1,0-2,0.9-2,2v22.4c0-0.3-0.2-0.6-0.4-0.9l-8.9-12.1l8.3-7.9c0.6-0.6,0.8-1.4,0.5-2.2c-0.3-0.8-1-1.3-1.9-1.3h-3.9
	c-0.5,0-1,0.2-1.4,0.6l-8.1,8v-6.5c0-1.1-0.9-2-2-2h-3c-1.1,0-2,0.9-2,2v22.7c0,1.1,0.9,2,2,2h3c1.1,0,2-0.9,2-2v-7.1l1.5-1.4
	l6.9,9.6c0.4,0.5,1,0.8,1.6,0.8h3.8c0.8,0,1.4-0.4,1.8-1.1c0.1-0.3,0.2-0.5,0.2-0.8c0.1,1.1,0.9,1.9,2,1.9h15.7c1.1,0,2-0.9,2-2V269
	c0-1.1-0.9-2-2-2h-10.7v-3.8h9.8c1.1,0,2-0.9,2-2v-2.5c0-1.1-0.9-2-2-2h-9.8v-3.2h10.6c0.6,0,1.1-0.2,1.5-0.6
	c0.4,0.4,0.9,0.6,1.5,0.6h5.6v18.1c0,1.1,0.9,2,2,2h3c1.1,0,2-0.9,2-2v-18.1h5.6C334.4,253.5,335.3,252.6,335.3,251.5z"/>
<path class="st0" d="M347.5,256.9c-0.4-0.1-0.8-0.2-1.3-0.3c-2.5-0.5-4.4-1-4.4-1.8c0-0.5,0-1.9,3.1-1.9c2.9,0,3.5,1.4,3.6,2.8
	c0.1,1,1,1.8,2,1.8h2.9c0.5,0,1.1-0.2,1.4-0.6s0.6-0.9,0.6-1.5c-0.2-5.6-4.2-9.1-10.3-9.1c-6,0-10.2,3.5-10.2,8.6c0,6,5.8,7.3,8.8,8
	l0.8,0.2c3.5,0.7,4.9,1.2,4.9,2.3c0,0.5,0,2.1-3.7,2.1c-1.4,0-4.6-0.3-4.6-3.5c0-1.1-0.9-2-2-2H336c-1.1,0-2,0.9-2,2
	c0,6.1,4.5,10,11.4,10c5.2,0,10.9-2.7,10.9-8.8C356.3,258.9,350.1,257.5,347.5,256.9z"/>
<path class="st0" d="M380.8,258.5l-8-6.1c-0.4-0.3-1-0.4-1.5-0.1c-0.5,0.2-0.8,0.7-0.8,1.3v2.9h-8.8c-0.8,0-1.5,0.7-1.5,1.5v3.3
	c0,0.8,0.7,1.5,1.5,1.5h8.8v3c0,0.5,0.3,1,0.8,1.3c0.2,0.1,0.4,0.2,0.6,0.2c0.3,0,0.6-0.1,0.8-0.3c0,0,0,0,0,0l8-6.1
	c0.4-0.3,0.6-0.7,0.6-1.1S381.2,258.8,380.8,258.5z"/>
<path class="st1" d="M250.4,97.9h3c1.1,0,2-0.9,2-2v-8.4h8.4c1.1,0,2-0.9,2-2V83c0-1.1-0.9-2-2-2h-8.4v-3.2h9.9c1.1,0,2-0.9,2-2
	v-2.5c0-1.1-0.9-2-2-2h-14.9c-1.1,0-2,0.9-2,2v22.7C248.4,97,249.3,97.9,250.4,97.9z"/>
<path class="st1" d="M270.2,97.9H286c1.1,0,2-0.9,2-2v-2.5c0-1.1-0.9-2-2-2h-10.7v-3.8h9.8c1.1,0,2-0.9,2-2V83c0-1.1-0.9-2-2-2h-9.8
	v-3.2h10.6c1.1,0,2-0.9,2-2v-2.5c0-1.1-0.9-2-2-2h-15.6c-1.1,0-2,0.9-2,2v22.7C268.2,97,269.1,97.9,270.2,97.9z"/>
<path class="st1" d="M291.2,97.9h11c5.8,0,8.9-4.3,8.9-8.5c0-2.5-0.9-4.5-2.6-5.9c1-1.3,1.6-2.9,1.6-4.7c0-2.7-1.3-5.1-3.6-6.4
	c-1.8-1.1-4.7-1.1-7-1.1h-8.2c-1.1,0-2,0.9-2,2v22.7C289.2,97,290.1,97.9,291.2,97.9z M304,89.3c0,1.4-0.8,2.1-2.3,2.1h-5.6v-3.8
	h4.9C304,87.5,304,88.6,304,89.3z M303.1,79.4c0,0.8,0,1.6-2.8,1.6h-4v-3.2h4C303.1,77.8,303.1,78.3,303.1,79.4z"/>
<path class="st1" d="M328.5,85c-3.7,2.3-6.7,4.7-7.3,10.7c0,0.6,0.1,1.1,0.5,1.5c0.4,0.4,0.9,0.6,1.5,0.6h14.7c1.1,0,2-0.9,2-2v-2.4
	c0-1.1-0.9-2-2-2h-7.8c0.7-0.5,1.6-1.1,2.6-1.6c0.3-0.2,0.7-0.4,1-0.6c3.1-1.9,6.4-4.4,6.4-9.4c0-5-3.7-8.5-9-8.5
	c-2.7,0-5.1,0.9-6.8,2.7c-1.7,1.8-2.6,4.4-2.5,7.4c0.1,1.1,0.9,1.9,2,1.9h2.7c0.5,0,1.1-0.2,1.4-0.6s0.6-0.9,0.6-1.5
	c0-1.2,0.3-2.3,0.9-2.9c0.4-0.4,0.9-0.6,1.5-0.6c1.1,0,2.3,0.6,2.3,2.1C333.3,81.8,332.3,82.7,328.5,85z"/>
<path class="st1" d="M350.5,98.3c9.5,0,9.5-9.8,9.5-13.4c0-3.7,0-13.5-9.5-13.5s-9.5,9.8-9.5,13.5C341,88.5,341,98.3,350.5,98.3z
	 M350.5,91.9c-1.9,0-2.6-1.9-2.6-7.1c0-5.1,0.7-7,2.6-7s2.6,1.9,2.6,7C353.2,90,352.5,91.9,350.5,91.9z"/>
<path class="st1" d="M223.3,197.2h-18.1c-1.1,0-2,0.9-2,2v2.5c0,1.1,0.9,2,2,2h5.6v18.1c0,1.1,0.9,2,2,2h3c1.1,0,2-0.9,2-2v-18.1
	h5.6c1.1,0,2-0.9,2-2v-2.5C225.3,198.1,224.4,197.2,223.3,197.2z"/>
<path class="st1" d="M243.1,217.4h-10.7v-3.8h9.8c1.1,0,2-0.9,2-2V209c0-1.1-0.9-2-2-2h-9.8v-3.2H243c1.1,0,2-0.9,2-2v-2.5
	c0-1.1-0.9-2-2-2h-15.6c-1.1,0-2,0.9-2,2v22.7c0,1.1,0.9,2,2,2h15.7c1.1,0,2-0.9,2-2v-2.5C245.1,218.3,244.2,217.4,243.1,217.4z"/>
<path class="st1" d="M267.5,216.8c0-0.4-0.1-0.9-0.1-1.3c-0.1-1.1-0.3-3-1.6-4.5c1.4-1.4,2.1-3.4,2.1-5.8c0-4.7-3.6-7.9-8.9-7.9
	h-10.7c-1.1,0-2,0.9-2,2v22.7c0,1.1,0.9,2,2,2h3c1.1,0,2-0.9,2-2v-7.7h5.4c1.1,0,1.5,0.1,1.8,2.4c0,0,0,0.1,0,0.1
	c0.1,0.7,0.2,1.6,0.2,2.3c0.1,1.6,0.1,3.1,1.1,4.2c0.4,0.4,0.9,0.6,1.5,0.6h3.4c0.8,0,1.5-0.4,1.8-1.1s0.2-1.5-0.3-2.1
	C267.6,219.9,267.5,218.3,267.5,216.8z M253.4,203.8h5.5c1.5,0,2,0.5,2,1.9c0,1,0,2-3.2,2h-4.3V203.8z"/>
<path class="st1" d="M294.3,197.2h-4.1c-0.8,0-1.6,0.5-1.9,1.3l-5.3,14.1l-5.3-14.1c-0.3-0.8-1-1.3-1.9-1.3h-4.1c-1.1,0-2,0.9-2,2
	v22.7c0,1.1,0.9,2,2,2h2.9c1.1,0,2-0.9,2-2v-8l3.3,8.7c0.3,0.8,1,1.3,1.9,1.3h2.6c0.8,0,1.6-0.5,1.9-1.3l3.3-8.7v8c0,1.1,0.9,2,2,2
	h2.9c1.1,0,2-0.9,2-2v-22.7C296.3,198.1,295.4,197.2,294.3,197.2z"/>
<path class="st1" d="M304.1,197.2h-3c-1.1,0-2,0.9-2,2v22.7c0,1.1,0.9,2,2,2h3c1.1,0,2-0.9,2-2v-22.7
	C306.1,198.1,305.2,197.2,304.1,197.2z"/>
<path class="st1" d="M372.4,217.4h-10v-18.1c0-1.1-0.9-2-2-2h-3c-1.1,0-2,0.9-2,2V221l-8.8-22.5c-0.3-0.8-1-1.3-1.9-1.3h-3.3
	c-0.8,0-1.6,0.5-1.9,1.3l-8.8,22.4v-21.7c0-1.1-0.9-2-2-2h-2.9c-1.1,0-2,0.9-2,2V211l-8.3-12.8c-0.4-0.6-1-0.9-1.7-0.9h-3.2
	c-1.1,0-2,0.9-2,2v22.7c0,1.1,0.9,2,2,2h2.9c1.1,0,2-0.9,2-2v-11.5l8.2,12.6c0.4,0.6,1,0.9,1.7,0.9h3.3c0.9,0,1.6-0.6,1.9-1.4
	c0.1,0.2,0.1,0.3,0.2,0.5c0.4,0.5,1,0.9,1.7,0.9h3.1c0.8,0,1.6-0.5,1.9-1.3l2.1-5.5h6.8l2,5.5c0.3,0.8,1,1.3,1.9,1.3h3.3
	c0.7,0,1.3-0.3,1.7-0.9c0.1-0.2,0.2-0.4,0.3-0.6c0.2,0.8,1,1.4,1.9,1.4h15c1.1,0,2-0.9,2-2v-2.5
	C374.4,218.3,373.5,217.4,372.4,217.4z M342,210.5l1-2.8l1,2.8H342z"/>
<path class="st1" d="M393.5,205.1c-0.5,0-1.1,0-1.6,0.1l0.2-1.1h7.4c1.1,0,2-0.9,2-2v-2.4c0-1.1-0.9-2-2-2h-11.1c-1,0-1.8,0.7-2,1.6
	l-2.1,11.7c-0.1,0.6,0,1.1,0.4,1.6c0.4,0.4,0.9,0.7,1.5,0.8l2.3,0.1c0.6,0,1.2-0.2,1.7-0.7c0.8-0.9,1.7-1.4,2.6-1.4
	c1.9,0,3.1,1.2,3.1,3.1c0,2.1-1,3.3-2.8,3.3c-1.6,0-2.6-0.9-2.7-2.2c-0.1-1-0.9-1.9-2-1.9h-2.7c-0.5,0-1.1,0.2-1.4,0.6
	s-0.6,0.9-0.6,1.4c0.1,4.9,3.9,8.4,9.2,8.4c6.5,0,9.9-4.8,9.9-9.5C402.7,209,399,205.1,393.5,205.1z"/>
<path class="st1" d="M188.4,125.2h-4.7c-1.4,0-2.5,1.1-2.5,2.5V150l-15.3-23.6c-0.5-0.7-1.2-1.1-2.1-1.1h-5.3
	c-1.4,0-2.5,1.1-2.5,2.5v37.6c0,1.4,1.1,2.5,2.5,2.5h4.7c1.4,0,2.5-1.1,2.5-2.5v-21.9l15.2,23.3c0.5,0.7,1.2,1.1,2.1,1.1h5.5
	c1.4,0,2.5-1.1,2.5-2.5v-37.6C190.9,126.4,189.8,125.2,188.4,125.2z"/>
<path class="st1" d="M227.8,165.4v-4.2c0-1.4-1.1-2.5-2.5-2.5h-18.6v-8h17c1.4,0,2.5-1.1,2.5-2.5v-4.2c0-1.4-1.1-2.5-2.5-2.5h-17v-7
	h18.5c1.4,0,2.5-1.1,2.5-2.5v-4.2c0-1.4-1.1-2.5-2.5-2.5h-26c-1.4,0-2.5,1.1-2.5,2.5v37.6c0,1.4,1.1,2.5,2.5,2.5h26.1
	C226.7,167.9,227.8,166.7,227.8,165.4z"/>
<path class="st1" d="M247.8,166l6.3-23l6.2,23c0.3,1.1,1.3,1.8,2.4,1.8h5.2c1.1,0,2.1-0.8,2.4-1.9l10.1-37.6c0.2-0.8,0-1.6-0.4-2.2
	c-0.5-0.6-1.2-1-2-1h-5c-1.2,0-2.2,0.8-2.4,1.9l-5.4,22l-5.9-22c-0.3-1.1-1.3-1.9-2.4-1.9h-5.4c-1.1,0-2.1,0.8-2.4,1.8l-5.9,21.9
	l-5.2-21.9c-0.3-1.1-1.3-1.9-2.4-1.9h-5.1c-0.8,0-1.5,0.4-2,1c-0.5,0.6-0.6,1.4-0.4,2.2l9.6,37.6c0.3,1.1,1.3,1.9,2.4,1.9h5.2
	C246.5,167.9,247.5,167.1,247.8,166z"/>
<path class="st1" d="M310.7,165.4c0,1.4,1.1,2.5,2.5,2.5h5c1.4,0,2.5-1.1,2.5-2.5v-14.6l14-21.6c0.5-0.8,0.5-1.7,0.1-2.6
	c-0.4-0.8-1.3-1.3-2.2-1.3h-5.7c-0.9,0-1.7,0.5-2.1,1.2l-8.9,14.5l-9.1-14.5c-0.5-0.7-1.3-1.2-2.1-1.2h-6c-0.9,0-1.8,0.5-2.2,1.3
	c-0.4,0.8-0.4,1.8,0.1,2.6l14.1,21.6V165.4z"/>
<path class="st1" d="M355.4,124.3c-14.1,0-20.5,11.5-20.5,22.2c0,10.7,6.4,22.2,20.5,22.2s20.5-11.5,20.5-22.2
	C375.9,135.9,369.5,124.3,355.4,124.3z M355.4,159.5c-7.8,0-10.5-7-10.5-13s2.8-13,10.5-13c7.8,0,10.5,7,10.5,13
	S363.1,159.5,355.4,159.5z"/>
<path class="st1" d="M413,156.9c0-0.7-0.1-1.5-0.1-2.2c-0.2-1.8-0.5-5.2-2.9-7.6c2.5-2.2,3.8-5.5,3.8-9.5c0-7.4-5.6-12.4-13.9-12.4
	h-17.7c-1.4,0-2.5,1.1-2.5,2.5v37.6c0,1.4,1.1,2.5,2.5,2.5h5c1.4,0,2.5-1.1,2.5-2.5v-13.6h9.7c2.6,0,3.2,0.8,3.8,4.7
	c0,0,0,0.1,0,0.1c0.3,1.3,0.3,2.7,0.3,4c0.1,2.5,0.2,4.9,1.6,6.5c0.5,0.5,1.1,0.8,1.8,0.8h5.6c1,0,1.8-0.6,2.3-1.4s0.3-1.9-0.3-2.7
	C413.3,162.3,413.2,159.7,413,156.9z M389.6,134.5h9.9c2.9,0,4.2,1.2,4.2,3.9c0,2.2-0.5,4.2-6.2,4.2h-7.9V134.5z"/>
<path class="st1" d="M438.9,143.2l14.3-13.7c0.7-0.7,1-1.8,0.6-2.7c-0.4-0.9-1.3-1.6-2.3-1.6h-6.5c-0.7,0-1.3,0.3-1.8,0.7
	l-14.8,14.6v-12.8c0-1.4-1.1-2.5-2.5-2.5h-5c-1.4,0-2.5,1.1-2.5,2.5v37.6c0,1.4,1.1,2.5,2.5,2.5h5c1.4,0,2.5-1.1,2.5-2.5v-12.1
	l3.4-3.2l11.9,16.7c0.5,0.7,1.2,1,2,1h6.3c0.9,0,1.8-0.5,2.2-1.4s0.3-1.8-0.2-2.6L438.9,143.2z"/>
<path class="st1" d="M545.9,0H76.2C34.2,0,0,34.2,0,76.2v181.3c0,42,34.2,76.2,76.2,76.2h469.7c42,0,76.2-34.2,76.2-76.2V76.2
	C622.1,34.2,587.9,0,545.9,0z M617.6,257.6c0,39.6-32.2,71.8-71.8,71.8H76.2c-39.6,0-71.8-32.2-71.8-71.8V76.2
	c0-39.6,32.2-71.8,71.8-71.8h469.7c39.6,0,71.8,32.2,71.8,71.8V257.6z"/>
<g>
	<path class="st2" d="M115,258.3l20-10.9c0,0,0.2,0.7,0.5,1.2c1.2,2.2,3.5,2.3,5.9,1c3.1-1.7,3.4-3.6,2.5-5.2
		c-3.9-7.1-28.1,16-36.1,1.3c-5.9-10.8-0.7-14.9,16.8-24.4c19.1-10.4,23-11.8,27.6-3.3c0.3,0.5,0.5,1.3,0.5,1.3l-18.6,10.1
		c0,0-0.2-0.8-0.5-1.3c-1-1.9-2.6-2.2-5.7-0.6c-2.6,1.4-4,2.5-2.8,4.6c3.7,6.8,28.8-15.8,36.5-1.6c6.2,11.4,1,15.5-17,25.3
		c-17.5,9.5-24.4,12.6-29.3,3.7C115.2,258.9,115,258.3,115,258.3z"/>
	<path class="st2" d="M199.1,226.3c-20.7,11.2-25.8,12.7-34.8-3.8c-9-16.5-4.9-20.1,15.7-31.3c20.7-11.2,25.9-12.7,34.8,3.8
		C223.9,211.5,219.8,215.1,199.1,226.3z M183.2,196.9c-5.2,2.8-4.5,5.2,0.8,14.9c5.3,9.8,7,11.6,12.2,8.8c5.2-2.8,4.5-5.2-0.8-15
		C190,195.9,188.3,194.1,183.2,196.9z"/>
	<path class="st2" d="M245.4,189.1l16-8.7l4.8,8.7l-35.6,19.3l-18.5-34l19.6-10.6L245.4,189.1z"/>
	<path class="st2" d="M270.4,186.9l-18.5-34l24.2-13.2c19.2-10.5,25.3-12.5,34,3.5c8.7,16,3.7,20-15.5,30.5L270.4,186.9z
		 M273.8,148.9l11.8,21.6l4.1-2.2c5.2-2.8,5.6-5.7,0.8-14.4c-4.8-8.8-7.4-10-12.6-7.2L273.8,148.9z"/>
	<path class="st2" d="M364.9,136.2c-20.7,11.2-25.8,12.7-34.8-3.8c-9-16.5-4.9-20.1,15.7-31.3c20.7-11.2,25.9-12.7,34.8,3.8
		C389.6,121.5,385.5,125,364.9,136.2z M348.9,106.8c-5.2,2.8-4.5,5.2,0.8,14.9c5.3,9.8,7,11.6,12.2,8.8s4.5-5.2-0.8-15
		C355.7,105.8,354.1,104,348.9,106.8z"/>
	<path class="st2" d="M436.4,80.7c5,9.3,1.2,16-16.7,25.8c-17.8,9.7-25.6,9.2-30.6,0l-11.8-21.7l19.1-10.4l11.8,21.7
		c2,3.6,3.8,5.9,7.9,3.7c4.1-2.2,3.2-5.1,1.3-8.7l-11.8-21.7L424.6,59L436.4,80.7z"/>
	<path class="st2" d="M477.5,41.6l-12.4,6.7l13.7,25.3l-19.6,10.6L445.5,59l-12.9,7l-4.8-8.7l44.9-24.4L477.5,41.6z"/>
</g>
</svg>
