<?xml version="1.0" encoding="utf-8"?>
<!-- Generator: Adobe Illustrator 19.2.1, SVG Export Plug-In . SVG Version: 6.00 Build 0)  -->
<svg version="1.1" id="Layer_2" xmlns="http://www.w3.org/2000/svg" xmlns:xlink="http://www.w3.org/1999/xlink" x="0px" y="0px"
	 viewBox="0 0 622.2 333.8" style="enable-background:new 0 0 622.2 333.8;" xml:space="preserve">
<style type="text/css">
	.st0{fill:#E33B62;}
	.st1{fill:#FFFFFF;}
	.st2{fill:#CC2950;}
</style>
<path class="st0" d="M240.3,243.3h-18.1c-1.1,0-2,0.9-2,2v2.5c0,1.1,0.9,2,2,2h5.6v18.1c0,1.1,0.9,2,2,2h3c1.1,0,2-0.9,2-2v-18.1
	h5.6c1.1,0,2-0.9,2-2v-2.5C242.3,244.2,241.4,243.3,240.3,243.3z"/>
<path class="st0" d="M247.5,243.3h-3c-1.1,0-2,0.9-2,2v22.7c0,1.1,0.9,2,2,2h3c1.1,0,2-0.9,2-2v-22.7
	C249.5,244.2,248.6,243.3,247.5,243.3z"/>
<path class="st0" d="M273.4,257.4h-3c-1,0-1.9,0.8-2,1.8c-0.1,1.4-0.8,4.7-4.5,4.7c-5,0-5.7-4.7-5.7-7.5c0-1.7,0.4-7.2,5.7-7.2
	c1.4,0,3.8,0.4,4.4,3.2c0.2,0.9,1,1.6,2,1.6h3c0.6,0,1.1-0.3,1.5-0.7c0.4-0.4,0.6-1,0.5-1.6c-0.8-5.5-5.2-9.1-11.3-9.1
	c-7.6,0-12.7,5.6-12.7,13.9c0,8.4,4.9,13.8,12.5,13.8c6.7,0,11.1-4.1,11.8-10.9c0.1-0.6-0.1-1.1-0.5-1.5
	C274.5,257.6,273.9,257.4,273.4,257.4z"/>
<path class="st0" d="M340.1,247.8v-2.5c0-1.1-0.9-2-2-2H320c-0.6,0-1.1,0.2-1.5,0.6c-0.4-0.4-0.9-0.6-1.5-0.6h-15.6
	c-1.1,0-2,0.9-2,2v22.4c0-0.3-0.2-0.6-0.4-0.9l-8.9-12.1l8.3-7.9c0.6-0.6,0.8-1.4,0.5-2.2c-0.3-0.8-1-1.3-1.9-1.3h-3.9
	c-0.5,0-1,0.2-1.4,0.6l-8.1,8v-6.5c0-1.1-0.9-2-2-2h-3c-1.1,0-2,0.9-2,2v22.7c0,1.1,0.9,2,2,2h3c1.1,0,2-0.9,2-2v-7.1l1.5-1.4
	l6.9,9.6c0.4,0.5,1,0.8,1.6,0.8h3.8c0.8,0,1.4-0.4,1.8-1.1c0.1-0.3,0.2-0.5,0.2-0.8c0.1,1.1,0.9,1.9,2,1.9h15.7c1.1,0,2-0.9,2-2
	v-2.5c0-1.1-0.9-2-2-2h-10.7v-3.8h9.8c1.1,0,2-0.9,2-2V255c0-1.1-0.9-2-2-2h-9.8v-3.2h10.6c0.6,0,1.1-0.2,1.5-0.6
	c0.4,0.4,0.9,0.6,1.5,0.6h5.6v18.1c0,1.1,0.9,2,2,2h3c1.1,0,2-0.9,2-2v-18.1h5.6C339.2,249.8,340.1,248.9,340.1,247.8z"/>
<path class="st0" d="M352.4,253.2c-0.4-0.1-0.8-0.2-1.3-0.3c-2.5-0.5-4.4-1-4.4-1.8c0-0.5,0-1.9,3.1-1.9c2.9,0,3.5,1.4,3.6,2.8
	c0.1,1,1,1.8,2,1.8h2.9c0.5,0,1.1-0.2,1.4-0.6s0.6-0.9,0.6-1.5c-0.2-5.6-4.2-9.1-10.3-9.1c-6,0-10.2,3.5-10.2,8.6c0,6,5.8,7.3,8.8,8
	l0.8,0.2c3.5,0.7,4.9,1.2,4.9,2.3c0,0.5,0,2.1-3.7,2.1c-1.4,0-4.6-0.3-4.6-3.5c0-1.1-0.9-2-2-2h-2.9c-1.1,0-2,0.9-2,2
	c0,6.1,4.5,10,11.4,10c5.2,0,10.9-2.7,10.9-8.8C361.2,255.2,355,253.8,352.4,253.2z"/>
<path class="st0" d="M385.7,254.9l-8-6.1c-0.4-0.3-1-0.4-1.5-0.1c-0.5,0.2-0.8,0.7-0.8,1.3v2.9h-8.8c-0.8,0-1.5,0.7-1.5,1.5v3.3
	c0,0.8,0.7,1.5,1.5,1.5h8.8v3c0,0.5,0.3,1,0.8,1.3c0.2,0.1,0.4,0.2,0.6,0.2c0.3,0,0.6-0.1,0.8-0.3c0,0,0,0,0,0l8-6.1
	c0.4-0.3,0.6-0.7,0.6-1.1S386.1,255.1,385.7,254.9z"/>
<path class="st1" d="M255.3,94.3h3c1.1,0,2-0.9,2-2v-8.4h8.4c1.1,0,2-0.9,2-2v-2.5c0-1.1-0.9-2-2-2h-8.4v-3.2h9.9c1.1,0,2-0.9,2-2
	v-2.5c0-1.1-0.9-2-2-2h-14.9c-1.1,0-2,0.9-2,2v22.7C253.3,93.4,254.2,94.3,255.3,94.3z"/>
<path class="st1" d="M275.1,94.3h15.7c1.1,0,2-0.9,2-2v-2.5c0-1.1-0.9-2-2-2h-10.7v-3.8h9.8c1.1,0,2-0.9,2-2v-2.5c0-1.1-0.9-2-2-2
	h-9.8v-3.2h10.6c1.1,0,2-0.9,2-2v-2.5c0-1.1-0.9-2-2-2h-15.6c-1.1,0-2,0.9-2,2v22.7C273.1,93.4,274,94.3,275.1,94.3z"/>
<path class="st1" d="M296.1,94.3h11c5.8,0,8.9-4.3,8.9-8.5c0-2.5-0.9-4.5-2.6-5.9c1-1.3,1.6-2.9,1.6-4.7c0-2.7-1.3-5.1-3.6-6.4
	c-1.8-1.1-4.7-1.1-7-1.1h-8.2c-1.1,0-2,0.9-2,2v22.7C294.1,93.4,295,94.3,296.1,94.3z M308.9,85.7c0,1.4-0.8,2.1-2.3,2.1h-5.6v-3.8
	h4.9C308.9,83.9,308.9,85,308.9,85.7z M308,75.7c0,0.8,0,1.6-2.8,1.6h-4v-3.2h4C308,74.1,308,74.7,308,75.7z"/>
<path class="st1" d="M333.4,81.4c-3.7,2.3-6.7,4.7-7.3,10.7c0,0.6,0.1,1.1,0.5,1.5c0.4,0.4,0.9,0.6,1.5,0.6h14.7c1.1,0,2-0.9,2-2
	v-2.4c0-1.1-0.9-2-2-2h-7.8c0.7-0.5,1.6-1.1,2.6-1.6c0.3-0.2,0.7-0.4,1-0.6c3.1-1.9,6.4-4.4,6.4-9.4c0-5-3.7-8.5-9-8.5
	c-2.7,0-5.1,0.9-6.8,2.7c-1.7,1.8-2.6,4.4-2.5,7.4c0.1,1.1,0.9,1.9,2,1.9h2.7c0.5,0,1.1-0.2,1.4-0.6s0.6-0.9,0.6-1.5
	c0-1.2,0.3-2.3,0.9-2.9c0.4-0.4,0.9-0.6,1.5-0.6c1.1,0,2.3,0.6,2.3,2.1C338.2,78.1,337.2,79,333.4,81.4z"/>
<path class="st1" d="M355.4,94.6c9.5,0,9.5-9.8,9.5-13.4c0-3.7,0-13.5-9.5-13.5s-9.5,9.8-9.5,13.5C345.9,84.9,345.9,94.6,355.4,94.6
	z M355.4,88.3c-1.9,0-2.6-1.9-2.6-7.1c0-5.1,0.7-7,2.6-7s2.6,1.9,2.6,7C358.1,86.3,357.4,88.3,355.4,88.3z"/>
<path class="st1" d="M228.2,193.6h-18.1c-1.1,0-2,0.9-2,2v2.5c0,1.1,0.9,2,2,2h5.6v18.1c0,1.1,0.9,2,2,2h3c1.1,0,2-0.9,2-2v-18.1
	h5.6c1.1,0,2-0.9,2-2v-2.5C230.2,194.5,229.3,193.6,228.2,193.6z"/>
<path class="st1" d="M248,213.7h-10.7v-3.8h9.8c1.1,0,2-0.9,2-2v-2.5c0-1.1-0.9-2-2-2h-9.8v-3.2h10.6c1.1,0,2-0.9,2-2v-2.5
	c0-1.1-0.9-2-2-2h-15.6c-1.1,0-2,0.9-2,2v22.7c0,1.1,0.9,2,2,2H248c1.1,0,2-0.9,2-2v-2.5C250,214.6,249.1,213.7,248,213.7z"/>
<path class="st1" d="M272.3,213.2c0-0.4-0.1-0.9-0.1-1.3c-0.1-1.1-0.3-3-1.6-4.5c1.4-1.4,2.1-3.4,2.1-5.8c0-4.7-3.6-7.9-8.9-7.9
	h-10.7c-1.1,0-2,0.9-2,2v22.7c0,1.1,0.9,2,2,2h3c1.1,0,2-0.9,2-2v-7.7h5.4c1.1,0,1.5,0.1,1.8,2.4c0,0,0,0.1,0,0.1
	c0.1,0.7,0.2,1.6,0.2,2.3c0.1,1.6,0.1,3.1,1.1,4.2c0.4,0.4,0.9,0.6,1.5,0.6h3.4c0.8,0,1.5-0.4,1.8-1.1s0.2-1.5-0.3-2.1
	C272.5,216.2,272.4,214.7,272.3,213.2z M258.3,200.1h5.5c1.5,0,2,0.5,2,1.9c0,1,0,2-3.2,2h-4.3V200.1z"/>
<path class="st1" d="M299.2,193.6h-4.1c-0.8,0-1.6,0.5-1.9,1.3l-5.3,14.1l-5.3-14.1c-0.3-0.8-1-1.3-1.9-1.3h-4.1c-1.1,0-2,0.9-2,2
	v22.7c0,1.1,0.9,2,2,2h2.9c1.1,0,2-0.9,2-2v-8l3.3,8.7c0.3,0.8,1,1.3,1.9,1.3h2.6c0.8,0,1.6-0.5,1.9-1.3l3.3-8.7v8c0,1.1,0.9,2,2,2
	h2.9c1.1,0,2-0.9,2-2v-22.7C301.2,194.5,300.3,193.6,299.2,193.6z"/>
<path class="st1" d="M309,193.6h-3c-1.1,0-2,0.9-2,2v22.7c0,1.1,0.9,2,2,2h3c1.1,0,2-0.9,2-2v-22.7C311,194.5,310.1,193.6,309,193.6
	z"/>
<path class="st1" d="M377.3,213.7h-10v-18.1c0-1.1-0.9-2-2-2h-3c-1.1,0-2,0.9-2,2v21.8l-8.8-22.5c-0.3-0.8-1-1.3-1.9-1.3h-3.3
	c-0.8,0-1.6,0.5-1.9,1.3l-8.8,22.4v-21.7c0-1.1-0.9-2-2-2h-2.9c-1.1,0-2,0.9-2,2v11.7l-8.3-12.8c-0.4-0.6-1-0.9-1.7-0.9h-3.2
	c-1.1,0-2,0.9-2,2v22.7c0,1.1,0.9,2,2,2h2.9c1.1,0,2-0.9,2-2v-11.5l8.2,12.6c0.4,0.6,1,0.9,1.7,0.9h3.3c0.9,0,1.6-0.6,1.9-1.4
	c0.1,0.2,0.1,0.3,0.2,0.5c0.4,0.5,1,0.9,1.7,0.9h3.1c0.8,0,1.6-0.5,1.9-1.3l2.1-5.5h6.8l2,5.5c0.3,0.8,1,1.3,1.9,1.3h3.3
	c0.7,0,1.3-0.3,1.7-0.9c0.1-0.2,0.2-0.4,0.3-0.6c0.2,0.8,1,1.4,1.9,1.4h15c1.1,0,2-0.9,2-2v-2.5
	C379.3,214.6,378.4,213.7,377.3,213.7z M346.9,206.9l1-2.8l1,2.8H346.9z"/>
<path class="st1" d="M398.3,201.4c-0.5,0-1.1,0-1.6,0.1l0.2-1.1h7.4c1.1,0,2-0.9,2-2v-2.4c0-1.1-0.9-2-2-2h-11.1c-1,0-1.8,0.7-2,1.6
	l-2.1,11.7c-0.1,0.6,0,1.1,0.4,1.6c0.4,0.4,0.9,0.7,1.5,0.8l2.3,0.1c0.6,0,1.2-0.2,1.7-0.7c0.8-0.9,1.7-1.4,2.6-1.4
	c1.9,0,3.1,1.2,3.1,3.1c0,2.1-1,3.3-2.8,3.3c-1.6,0-2.6-0.9-2.7-2.2c-0.1-1-0.9-1.9-2-1.9h-2.7c-0.5,0-1.1,0.2-1.4,0.6
	s-0.6,0.9-0.6,1.4c0.1,4.9,3.9,8.4,9.2,8.4c6.5,0,9.9-4.8,9.9-9.5C407.6,205.3,403.9,201.4,398.3,201.4z"/>
<path class="st1" d="M193.3,121.6h-4.7c-1.4,0-2.5,1.1-2.5,2.5v22.2l-15.3-23.6c-0.5-0.7-1.2-1.1-2.1-1.1h-5.3
	c-1.4,0-2.5,1.1-2.5,2.5v37.6c0,1.4,1.1,2.5,2.5,2.5h4.7c1.4,0,2.5-1.1,2.5-2.5v-21.9l15.2,23.3c0.5,0.7,1.2,1.1,2.1,1.1h5.5
	c1.4,0,2.5-1.1,2.5-2.5v-37.6C195.8,122.7,194.7,121.6,193.3,121.6z"/>
<path class="st1" d="M232.7,161.7v-4.2c0-1.4-1.1-2.5-2.5-2.5h-18.6v-8h17c1.4,0,2.5-1.1,2.5-2.5v-4.2c0-1.4-1.1-2.5-2.5-2.5h-17v-7
	H230c1.4,0,2.5-1.1,2.5-2.5v-4.2c0-1.4-1.1-2.5-2.5-2.5h-26c-1.4,0-2.5,1.1-2.5,2.5v37.6c0,1.4,1.1,2.5,2.5,2.5h26.1
	C231.6,164.2,232.7,163.1,232.7,161.7z"/>
<path class="st1" d="M252.7,162.4l6.3-23l6.2,23c0.3,1.1,1.3,1.8,2.4,1.8h5.2c1.1,0,2.1-0.8,2.4-1.9l10.1-37.6
	c0.2-0.8,0-1.6-0.4-2.2c-0.5-0.6-1.2-1-2-1h-5c-1.2,0-2.2,0.8-2.4,1.9l-5.4,22l-5.9-22c-0.3-1.1-1.3-1.9-2.4-1.9h-5.4
	c-1.1,0-2.1,0.8-2.4,1.8l-5.9,21.9l-5.2-21.9c-0.3-1.1-1.3-1.9-2.4-1.9h-5.1c-0.8,0-1.5,0.4-2,1c-0.5,0.6-0.6,1.4-0.4,2.2l9.6,37.6
	c0.3,1.1,1.3,1.9,2.4,1.9h5.2C251.4,164.2,252.4,163.5,252.7,162.4z"/>
<path class="st1" d="M315.6,161.7c0,1.4,1.1,2.5,2.5,2.5h5c1.4,0,2.5-1.1,2.5-2.5v-14.6l14-21.6c0.5-0.8,0.5-1.7,0.1-2.6
	c-0.4-0.8-1.3-1.3-2.2-1.3h-5.7c-0.9,0-1.7,0.5-2.1,1.2l-8.9,14.5l-9.1-14.5c-0.5-0.7-1.3-1.2-2.1-1.2h-6c-0.9,0-1.8,0.5-2.2,1.3
	c-0.4,0.8-0.4,1.8,0.1,2.6l14.1,21.6V161.7z"/>
<path class="st1" d="M360.3,120.7c-14.1,0-20.5,11.5-20.5,22.2c0,10.7,6.4,22.2,20.5,22.2s20.5-11.5,20.5-22.2
	C380.8,132.2,374.4,120.7,360.3,120.7z M360.3,155.9c-7.8,0-10.5-7-10.5-13s2.8-13,10.5-13c7.8,0,10.5,7,10.5,13
	S368,155.9,360.3,155.9z"/>
<path class="st1" d="M417.9,153.3c0-0.7-0.1-1.5-0.1-2.2c-0.2-1.8-0.5-5.2-2.9-7.6c2.5-2.2,3.8-5.5,3.8-9.5
	c0-7.4-5.6-12.4-13.9-12.4H387c-1.4,0-2.5,1.1-2.5,2.5v37.6c0,1.4,1.1,2.5,2.5,2.5h5c1.4,0,2.5-1.1,2.5-2.5v-13.6h9.7
	c2.6,0,3.2,0.8,3.8,4.7c0,0,0,0.1,0,0.1c0.3,1.3,0.3,2.7,0.3,4c0.1,2.5,0.2,4.9,1.6,6.5c0.5,0.5,1.1,0.8,1.8,0.8h5.6
	c1,0,1.8-0.6,2.3-1.4s0.3-1.9-0.3-2.7C418.2,158.7,418.1,156,417.9,153.3z M394.5,130.8h9.9c2.9,0,4.2,1.2,4.2,3.9
	c0,2.2-0.5,4.2-6.2,4.2h-7.9V130.8z"/>
<path class="st1" d="M443.8,139.6l14.3-13.7c0.7-0.7,1-1.8,0.6-2.7c-0.4-0.9-1.3-1.6-2.3-1.6h-6.5c-0.7,0-1.3,0.3-1.8,0.7
	l-14.8,14.6v-12.8c0-1.4-1.1-2.5-2.5-2.5h-5c-1.4,0-2.5,1.1-2.5,2.5v37.6c0,1.4,1.1,2.5,2.5,2.5h5c1.4,0,2.5-1.1,2.5-2.5v-12.1
	l3.4-3.2l11.9,16.7c0.5,0.7,1.2,1,2,1h6.3c0.9,0,1.8-0.5,2.2-1.4s0.3-1.8-0.2-2.6L443.8,139.6z"/>
<path class="st1" d="M545.9,0H76.2C34.2,0,0,34.2,0,76.2v181.3c0,42,34.2,76.2,76.2,76.2h469.7c42,0,76.2-34.2,76.2-76.2V76.2
	C622.2,34.2,588,0,545.9,0z M617.7,257.6c0,39.6-32.2,71.8-71.8,71.8H76.2c-39.6,0-71.8-32.2-71.8-71.8V76.2
	c0-39.6,32.2-71.8,71.8-71.8h469.7c39.6,0,71.8,32.2,71.8,71.8V257.6z"/>
<g>
	<path class="st2" d="M152.1,249.6l17.2-9.3c0,0,0.2,0.6,0.5,1c1,1.9,3,2,5.1,0.9c2.7-1.4,2.9-3.1,2.2-4.4
		c-3.3-6.1-24.1,13.7-30.9,1.1c-5-9.3-0.6-12.8,14.4-20.9c16.3-8.9,19.7-10.1,23.6-2.9c0.2,0.5,0.5,1.1,0.5,1.1l-15.9,8.6
		c0,0-0.2-0.7-0.5-1.2c-0.9-1.6-2.2-1.9-4.9-0.5c-2.2,1.2-3.4,2.2-2.4,4c3.2,5.8,24.7-13.5,31.3-1.4c5.3,9.7,0.9,13.3-14.5,21.7
		c-15,8.2-20.9,10.8-25.1,3.2C152.4,250.2,152.1,249.6,152.1,249.6z"/>
	<path class="st2" d="M224.2,222.3c-17.7,9.6-22.1,10.9-29.8-3.3c-7.7-14.1-4.2-17.2,13.5-26.8s22.1-10.8,29.8,3.3
		C245.4,209.6,241.9,212.7,224.2,222.3z M210.6,197.1c-4.4,2.4-3.9,4.4,0.6,12.8c4.6,8.4,6,9.9,10.4,7.6c4.4-2.4,3.9-4.4-0.7-12.8
		C216.4,196.2,215,194.7,210.6,197.1z"/>
	<path class="st2" d="M263.8,190.4l13.7-7.4l4.1,7.5l-30.5,16.6l-15.8-29.1l16.8-9.1L263.8,190.4z"/>
	<path class="st2" d="M285.3,188.5l-15.8-29.1l20.7-11.3c16.5-9,21.7-10.7,29.1,3c7.4,13.7,3.2,17.1-13.3,26.1L285.3,188.5z
		 M288.2,156l10.1,18.5l3.5-1.9c4.4-2.4,4.8-4.9,0.7-12.4c-4.1-7.5-6.4-8.6-10.8-6.2L288.2,156z"/>
	<path class="st2" d="M366.2,145.1c-17.7,9.6-22.1,10.9-29.8-3.3c-7.7-14.1-4.2-17.2,13.5-26.8c17.7-9.6,22.1-10.8,29.8,3.3
		C387.4,132.5,383.9,135.5,366.2,145.1z M352.5,119.9c-4.4,2.4-3.9,4.4,0.7,12.8c4.6,8.4,6,9.9,10.4,7.6s3.9-4.4-0.7-12.8
		C358.4,119.1,356.9,117.5,352.5,119.9z"/>
	<path class="st2" d="M427.5,97.6c4.3,8,1,13.7-14.3,22.1c-15.2,8.3-21.9,7.9-26.2,0L376.8,101l16.3-8.9l10.1,18.6
		c1.7,3.1,3.3,5.1,6.8,3.2c3.5-1.9,2.8-4.4,1.1-7.4L401,87.9l16.4-8.9L427.5,97.6z"/>
	<path class="st2" d="M462.6,64.1L452,69.8l11.8,21.6l-16.8,9.1l-11.8-21.6l-11,6l-4.1-7.5l38.4-20.9L462.6,64.1z"/>
</g>
</svg>
