<?xml version="1.0" encoding="utf-8"?>
<!-- Generator: Adobe Illustrator 19.2.1, SVG Export Plug-In . SVG Version: 6.00 Build 0)  -->
<svg version="1.1" id="Layer_2" xmlns="http://www.w3.org/2000/svg" xmlns:xlink="http://www.w3.org/1999/xlink" x="0px" y="0px"
	 viewBox="0 0 622.2 333.8" style="enable-background:new 0 0 622.2 333.8;" xml:space="preserve">
<style type="text/css">
	.st0{fill:#E33B62;}
	.st1{fill:#FFFFFF;}
	.st2{fill:#CC2950;}
</style>
<path class="st0" d="M242.7,243.3h-18.1c-1.1,0-2,0.9-2,2v2.5c0,1.1,0.9,2,2,2h5.6v18.1c0,1.1,0.9,2,2,2h3c1.1,0,2-0.9,2-2v-18.1
	h5.6c1.1,0,2-0.9,2-2v-2.5C244.7,244.2,243.8,243.3,242.7,243.3z"/>
<path class="st0" d="M249.9,243.3h-3c-1.1,0-2,0.9-2,2v22.7c0,1.1,0.9,2,2,2h3c1.1,0,2-0.9,2-2v-22.7
	C251.9,244.2,251,243.3,249.9,243.3z"/>
<path class="st0" d="M275.7,257.4h-3c-1,0-1.9,0.8-2,1.8c-0.1,1.4-0.8,4.7-4.5,4.7c-5,0-5.7-4.7-5.7-7.5c0-1.7,0.4-7.2,5.7-7.2
	c1.4,0,3.8,0.4,4.4,3.2c0.2,0.9,1,1.6,2,1.6h3c0.6,0,1.1-0.3,1.5-0.7c0.4-0.4,0.6-1,0.5-1.6c-0.8-5.5-5.2-9.1-11.3-9.1
	c-7.6,0-12.7,5.6-12.7,13.9c0,8.4,4.9,13.8,12.5,13.8c6.7,0,11.1-4.1,11.8-10.9c0.1-0.6-0.1-1.1-0.5-1.5
	C276.8,257.6,276.3,257.4,275.7,257.4z"/>
<path class="st0" d="M342.5,247.8v-2.5c0-1.1-0.9-2-2-2h-18.1c-0.6,0-1.1,0.2-1.5,0.6c-0.4-0.4-0.9-0.6-1.5-0.6h-15.6
	c-1.1,0-2,0.9-2,2v22.4c0-0.3-0.2-0.6-0.4-0.9l-8.9-12.1l8.3-7.9c0.6-0.6,0.8-1.4,0.5-2.2c-0.3-0.8-1-1.3-1.9-1.3h-3.9
	c-0.5,0-1,0.2-1.4,0.6l-8.1,8v-6.5c0-1.1-0.9-2-2-2h-3c-1.1,0-2,0.9-2,2v22.7c0,1.1,0.9,2,2,2h3c1.1,0,2-0.9,2-2v-7.1l1.5-1.4
	l6.9,9.6c0.4,0.5,1,0.8,1.6,0.8h3.8c0.8,0,1.4-0.4,1.8-1.1c0.1-0.3,0.2-0.5,0.2-0.8c0.1,1.1,0.9,1.9,2,1.9h15.7c1.1,0,2-0.9,2-2
	v-2.5c0-1.1-0.9-2-2-2h-10.7v-3.8h9.8c1.1,0,2-0.9,2-2V255c0-1.1-0.9-2-2-2h-9.8v-3.2h10.6c0.6,0,1.1-0.2,1.5-0.6
	c0.4,0.4,0.9,0.6,1.5,0.6h5.6v18.1c0,1.1,0.9,2,2,2h3c1.1,0,2-0.9,2-2v-18.1h5.6C341.6,249.8,342.5,248.9,342.5,247.8z"/>
<path class="st0" d="M354.7,253.2c-0.4-0.1-0.8-0.2-1.3-0.3c-2.5-0.5-4.4-1-4.4-1.8c0-0.5,0-1.9,3.1-1.9c2.9,0,3.5,1.4,3.6,2.8
	c0.1,1,1,1.8,2,1.8h2.9c0.5,0,1.1-0.2,1.4-0.6s0.6-0.9,0.6-1.5c-0.2-5.6-4.2-9.1-10.3-9.1c-6,0-10.2,3.5-10.2,8.6c0,6,5.8,7.3,8.8,8
	l0.8,0.2c3.5,0.7,4.9,1.2,4.9,2.3c0,0.5,0,2.1-3.7,2.1c-1.4,0-4.6-0.3-4.6-3.5c0-1.1-0.9-2-2-2h-2.9c-1.1,0-2,0.9-2,2
	c0,6.1,4.5,10,11.4,10c5.2,0,10.9-2.7,10.9-8.8C363.5,255.2,357.4,253.8,354.7,253.2z"/>
<path class="st0" d="M388.1,254.9l-8-6.1c-0.4-0.3-1-0.4-1.5-0.1c-0.5,0.2-0.8,0.7-0.8,1.3v2.9h-8.8c-0.8,0-1.5,0.7-1.5,1.5v3.3
	c0,0.8,0.7,1.5,1.5,1.5h8.8v3c0,0.5,0.3,1,0.8,1.3c0.2,0.1,0.4,0.2,0.6,0.2c0.3,0,0.6-0.1,0.8-0.3c0,0,0,0,0,0l8-6.1
	c0.4-0.3,0.6-0.7,0.6-1.1S388.5,255.1,388.1,254.9z"/>
<path class="st1" d="M267.3,94.3h3c1.1,0,2-0.9,2-2v-8.4h8.4c1.1,0,2-0.9,2-2v-2.5c0-1.1-0.9-2-2-2h-8.4v-3.2h9.9c1.1,0,2-0.9,2-2
	v-2.5c0-1.1-0.9-2-2-2h-14.9c-1.1,0-2,0.9-2,2v22.7C265.3,93.4,266.2,94.3,267.3,94.3z"/>
<path class="st1" d="M287.1,94.3h15.7c1.1,0,2-0.9,2-2v-2.5c0-1.1-0.9-2-2-2h-10.7v-3.8h9.8c1.1,0,2-0.9,2-2v-2.5c0-1.1-0.9-2-2-2
	h-9.8v-3.2h10.6c1.1,0,2-0.9,2-2v-2.5c0-1.1-0.9-2-2-2h-15.6c-1.1,0-2,0.9-2,2v22.7C285.1,93.4,286,94.3,287.1,94.3z"/>
<path class="st1" d="M308.1,94.3H319c5.8,0,8.9-4.3,8.9-8.5c0-2.5-0.9-4.5-2.6-5.9c1-1.3,1.6-2.9,1.6-4.7c0-2.7-1.3-5.1-3.6-6.4
	c-1.8-1.1-4.7-1.1-7-1.1h-8.2c-1.1,0-2,0.9-2,2v22.7C306.1,93.4,307,94.3,308.1,94.3z M320.9,85.7c0,1.4-0.8,2.1-2.3,2.1h-5.6v-3.8
	h4.9C320.9,83.9,320.9,85,320.9,85.7z M320,75.7c0,0.8,0,1.6-2.8,1.6h-4v-3.2h4C320,74.1,320,74.7,320,75.7z"/>
<path class="st1" d="M340.9,74.7h7.5c-3.8,5.2-6.2,11.4-6.6,17.4c0,0.6,0.2,1.1,0.5,1.5c0.4,0.4,0.9,0.6,1.5,0.6h3
	c1.1,0,1.9-0.8,2-1.9c0.4-6.5,3.8-14.2,8-18.5c0.4-0.4,0.6-0.9,0.6-1.4v-2.3c0-1.1-0.9-2-2-2h-14.6c-1.1,0-2,0.9-2,2v2.5
	C338.9,73.8,339.8,74.7,340.9,74.7z"/>
<path class="st1" d="M257.6,194.4c-0.4-0.5-1-0.8-1.6-0.8h-3c-0.9,0-1.7,0.6-1.9,1.5l-2.8,11.4l-3-11.4c-0.2-0.9-1-1.5-1.9-1.5H240
	c-0.9,0-1.7,0.6-1.9,1.5l-3.1,11.3l-2.7-11.3c-0.2-0.9-1-1.5-1.9-1.5h-3.1c-0.6,0-1.2,0.3-1.6,0.8c-0.4,0.5-0.5,1.1-0.4,1.7
	l5.8,22.7c0.2,0.9,1,1.5,1.9,1.5h3.1c0.9,0,1.7-0.6,1.9-1.5l3.3-12.1l3.3,12.1c0.2,0.9,1,1.5,1.9,1.5h3.1c0.9,0,1.7-0.6,1.9-1.5
	l6.1-22.7C258.1,195.5,257.9,194.9,257.6,194.4z"/>
<path class="st1" d="M300.9,213.2c0-0.4-0.1-0.9-0.1-1.3c-0.1-1-0.3-3-1.6-4.5c1.4-1.4,2.1-3.4,2.1-5.8c0-4.7-3.6-7.9-8.9-7.9h-10.7
	c-1.1,0-2,0.9-2,2v21.8l-8.8-22.5c-0.3-0.8-1-1.3-1.9-1.3h-3.3c-0.8,0-1.6,0.5-1.9,1.3l-8.9,22.7c-0.2,0.6-0.2,1.3,0.2,1.9
	c0.4,0.5,1,0.9,1.7,0.9h3.1c0.8,0,1.6-0.5,1.9-1.3l2.1-5.5h6.8l2,5.5c0.3,0.8,1,1.3,1.9,1.3h3.3c0.7,0,1.3-0.3,1.7-0.9
	c0.1-0.2,0.2-0.4,0.3-0.6c0.2,0.8,1,1.4,1.9,1.4h3c1.1,0,2-0.9,2-2v-7.7h5.4c1.1,0,1.5,0.1,1.8,2.4c0,0,0,0.1,0,0.1
	c0.1,0.7,0.2,1.6,0.2,2.3c0.1,1.6,0.1,3.1,1.1,4.2c0.4,0.4,0.9,0.6,1.5,0.6h3.4c0.8,0,1.5-0.4,1.8-1.1c0.3-0.7,0.2-1.5-0.3-2.1
	C301.1,216.2,301,214.7,300.9,213.2z M266.4,206.9l1-2.8l1,2.8H266.4z M286.8,200.1h5.5c1.5,0,2,0.5,2,1.9c0,1,0,2-3.2,2h-4.3V200.1
	z"/>
<path class="st1" d="M320,193.6h-14.9c-1.1,0-2,0.9-2,2v22.7c0,1.1,0.9,2,2,2h3c1.1,0,2-0.9,2-2v-8.4h8.4c1.1,0,2-0.9,2-2v-2.5
	c0-1.1-0.9-2-2-2h-8.4v-3.2h9.9c1.1,0,2-0.9,2-2v-2.5C322,194.5,321.1,193.6,320,193.6z"/>
<path class="st1" d="M328.1,193.6h-3c-1.1,0-2,0.9-2,2v22.7c0,1.1,0.9,2,2,2h3c1.1,0,2-0.9,2-2v-22.7
	C330.1,194.5,329.2,193.6,328.1,193.6z"/>
<path class="st1" d="M350.5,213.7h-10.7v-3.8h9.8c1.1,0,2-0.9,2-2v-2.5c0-1.1-0.9-2-2-2h-9.8v-3.2h10.6c1.1,0,2-0.9,2-2v-2.5
	c0-1.1-0.9-2-2-2h-15.6c-1.1,0-2,0.9-2,2v22.7c0,1.1,0.9,2,2,2h15.7c1.1,0,2-0.9,2-2v-2.5C352.5,214.6,351.6,213.7,350.5,213.7z"/>
<path class="st1" d="M370.8,213.7h-10v-18.1c0-1.1-0.9-2-2-2h-3c-1.1,0-2,0.9-2,2v22.7c0,1.1,0.9,2,2,2h15c1.1,0,2-0.9,2-2v-2.5
	C372.8,214.6,371.9,213.7,370.8,213.7z"/>
<path class="st1" d="M382.8,193.6H375c-1.1,0-2,0.9-2,2v22.7c0,1.1,0.9,2,2,2h7.8c5.9,0,12.9-2.4,12.9-13.9
	C395.6,198.1,391.1,193.6,382.8,193.6z M383,213.7h-3v-13.6h3.1c3.3,0,5.6,1.1,5.6,6.7C388.6,211.5,386.8,213.7,383,213.7z"/>
<path class="st1" d="M103.6,138.1c-0.7-0.2-1.4-0.3-2.1-0.5c-5-1.1-8-1.9-8-3.8c0-2.6,2-3.9,5.9-3.9c5.6,0,6.6,3.1,6.8,5.5
	c0.1,1.3,1.2,2.2,2.5,2.2h4.7c0.7,0,1.3-0.3,1.8-0.8c0.5-0.5,0.7-1.1,0.7-1.8c-0.3-9-6.5-14.3-16.4-14.3c-11.2,0-16.1,6.8-16.1,13.5
	c0,9.3,8.8,11.2,14,12.4l1.3,0.3c6,1.3,8.8,2.2,8.8,4.7c0,2.9-2.4,4.3-7,4.3c-2,0-8.5-0.5-8.5-6.6c0-1.4-1.1-2.5-2.5-2.5h-4.7
	c-1.4,0-2.5,1.1-2.5,2.5c0,9.6,7.1,15.8,18,15.8c8.3,0,17.2-4.3,17.2-13.7C117.6,141.3,108.2,139.1,103.6,138.1z"/>
<path class="st1" d="M141.9,123.2c-0.4-1-1.3-1.6-2.3-1.6H134c-1,0-2,0.6-2.3,1.6L117,160.8c-0.3,0.8-0.2,1.6,0.3,2.3
	c0.5,0.7,1.2,1.1,2.1,1.1h5.2c1,0,2-0.6,2.3-1.6l3.6-9.7h12.4l3.5,9.7c0.4,1,1.3,1.6,2.4,1.6h5.5c0.8,0,1.6-0.4,2.1-1.1
	c0.5-0.7,0.6-1.6,0.3-2.3L141.9,123.2z M133.8,143.7l2.8-7.8l2.8,7.8H133.8z"/>
<path class="st1" d="M190.5,121.6h-4.7c-1.4,0-2.5,1.1-2.5,2.5v22.2l-15.3-23.6c-0.5-0.7-1.2-1.1-2.1-1.1h-5.3
	c-1.4,0-2.5,1.1-2.5,2.5v37.6c0,1.4,1.1,2.5,2.5,2.5h4.7c1.4,0,2.5-1.1,2.5-2.5v-21.9l15.2,23.3c0.5,0.7,1.2,1.1,2.1,1.1h5.5
	c1.4,0,2.5-1.1,2.5-2.5v-37.6C193,122.7,191.9,121.6,190.5,121.6z"/>
<path class="st1" d="M226,147h14.8c1.4,0,2.5-1.1,2.5-2.5v-4.2c0-1.4-1.1-2.5-2.5-2.5H226v-7h17.2c1.4,0,2.5-1.1,2.5-2.5v-4.2
	c0-1.4-1.1-2.5-2.5-2.5h-24.7c-1.4,0-2.5,1.1-2.5,2.5v37.6c0,1.4,1.1,2.5,2.5,2.5h5c1.4,0,2.5-1.1,2.5-2.5V147z"/>
<path class="st1" d="M308.2,123.2c-0.4-1-1.3-1.6-2.3-1.6h-5.5c-1,0-2,0.6-2.3,1.6l-14.4,36.8c-1.1-1.5-1.2-4-1.4-6.6
	c0-0.7-0.1-1.5-0.1-2.2c-0.2-1.8-0.5-5.2-2.9-7.6c2.5-2.2,3.8-5.5,3.8-9.5c0-7.4-5.6-12.4-13.9-12.4h-17.7c-1.4,0-2.5,1.1-2.5,2.5
	v37.6c0,1.4,1.1,2.5,2.5,2.5h5c1.4,0,2.5-1.1,2.5-2.5v-13.6h9.7c2.6,0,3.2,0.8,3.8,4.7c0,0,0,0.1,0,0.1c0.3,1.3,0.3,2.7,0.3,4
	c0.1,2.5,0.2,4.9,1.6,6.5c0.5,0.5,1.1,0.8,1.8,0.8h5.6c0.7,0,1.4-0.3,1.9-0.9c0.5,0.6,1.2,0.9,1.9,0.9h5.2c1,0,2-0.6,2.3-1.6
	l3.6-9.7h12.4l3.5,9.7c0.4,1,1.3,1.6,2.4,1.6h5.5c0.8,0,1.6-0.4,2.1-1.1c0.5-0.7,0.6-1.6,0.3-2.3L308.2,123.2z M258.9,130.8h9.9
	c2.9,0,4.2,1.2,4.2,3.9c0,2.2-0.5,4.2-6.2,4.2h-7.9V130.8z M300.2,143.7l2.8-7.8l2.8,7.8H300.2z"/>
<path class="st1" d="M334.1,161.7v-21.9l15.2,23.3c0.5,0.7,1.2,1.1,2.1,1.1h5.5c1.4,0,2.5-1.1,2.5-2.5v-37.6c0-1.4-1.1-2.5-2.5-2.5
	h-4.7c-1.4,0-2.5,1.1-2.5,2.5v22.2l-15.3-23.6c-0.5-0.7-1.2-1.1-2.1-1.1h-5.3c-1.4,0-2.5,1.1-2.5,2.5v37.6c0,1.4,1.1,2.5,2.5,2.5
	h4.7C333,164.2,334.1,163.1,334.1,161.7z"/>
<path class="st1" d="M399.4,145h-5c-1.3,0-2.4,1-2.5,2.3c-0.4,5.3-3.5,8.5-8.4,8.5c-9.3,0-10.3-9.3-10.3-13.3
	c0-3,0.7-12.7,10.2-12.7c2.1,0,7,0.6,8.1,6c0.2,1.2,1.3,2,2.5,2h5c0.7,0,1.4-0.3,1.9-0.9c0.5-0.5,0.7-1.3,0.6-2
	c-1.3-8.7-8.3-14.4-18-14.4c-12.1,0-20.3,9-20.3,22.3c0,13.4,7.8,22.1,19.9,22.1c10.7,0,17.7-6.5,18.8-17.3c0.1-0.7-0.2-1.4-0.6-1.9
	S400.1,145,399.4,145z"/>
<path class="st1" d="M413.4,121.6h-5c-1.4,0-2.5,1.1-2.5,2.5v37.6c0,1.4,1.1,2.5,2.5,2.5h5c1.4,0,2.5-1.1,2.5-2.5v-37.6
	C415.9,122.7,414.8,121.6,413.4,121.6z"/>
<path class="st1" d="M441.1,138.1c-0.7-0.2-1.4-0.3-2.1-0.5c-5-1.1-8-1.9-8-3.8c0-2.6,2-3.9,5.9-3.9c5.6,0,6.6,3.1,6.8,5.5
	c0.1,1.3,1.2,2.2,2.5,2.2h4.7c0.7,0,1.3-0.3,1.8-0.8c0.5-0.5,0.7-1.1,0.7-1.8c-0.3-9-6.5-14.3-16.4-14.3c-11.2,0-16.1,6.8-16.1,13.5
	c0,9.3,8.8,11.2,14,12.4l1.3,0.3c6,1.3,8.8,2.2,8.8,4.7c0,2.9-2.4,4.3-7,4.3c-2,0-8.5-0.5-8.5-6.6c0-1.4-1.1-2.5-2.5-2.5h-4.7
	c-1.4,0-2.5,1.1-2.5,2.5c0,9.6,7.1,15.8,18,15.8c8.3,0,17.2-4.3,17.2-13.7C455.1,141.3,445.7,139.1,441.1,138.1z"/>
<path class="st1" d="M493.1,145h-5c-1.3,0-2.4,1-2.5,2.3c-0.4,5.3-3.5,8.5-8.4,8.5c-9.3,0-10.3-9.3-10.3-13.3
	c0-3,0.7-12.7,10.2-12.7c2.1,0,7,0.6,8.1,6c0.2,1.2,1.3,2,2.5,2h5c0.7,0,1.4-0.3,1.9-0.9c0.5-0.5,0.7-1.3,0.6-2
	c-1.3-8.7-8.3-14.4-18-14.4c-12.1,0-20.3,9-20.3,22.3c0,13.4,7.8,22.1,19.9,22.1c10.7,0,17.7-6.5,18.8-17.3c0.1-0.7-0.2-1.4-0.6-1.9
	S493.8,145,493.1,145z"/>
<path class="st1" d="M517.9,120.7c-14.1,0-20.5,11.5-20.5,22.2c0,10.7,6.4,22.2,20.5,22.2s20.5-11.5,20.5-22.2
	C538.4,132.2,532,120.7,517.9,120.7z M517.9,155.9c-7.8,0-10.5-7-10.5-13s2.8-13,10.5-13c7.8,0,10.5,7,10.5,13
	S525.6,155.9,517.9,155.9z"/>
<path class="st1" d="M545.9,0H76.2C34.2,0,0,34.2,0,76.2v181.3c0,42,34.2,76.2,76.2,76.2h469.7c42,0,76.2-34.2,76.2-76.2V76.2
	C622.2,34.2,588,0,545.9,0z M617.7,257.6c0,39.6-32.2,71.8-71.8,71.8H76.2c-39.6,0-71.8-32.2-71.8-71.8V76.2
	c0-39.6,32.2-71.8,71.8-71.8h469.7c39.6,0,71.8,32.2,71.8,71.8V257.6z"/>
<g>
	<path class="st2" d="M115,258.3l20-10.9c0,0,0.2,0.7,0.5,1.2c1.2,2.2,3.5,2.3,5.9,1c3.1-1.7,3.4-3.6,2.5-5.2
		c-3.9-7.1-28.1,16-36.1,1.3c-5.9-10.8-0.7-14.9,16.8-24.4c19.1-10.4,23-11.8,27.6-3.3c0.3,0.5,0.5,1.3,0.5,1.3l-18.6,10.1
		c0,0-0.2-0.8-0.5-1.3c-1-1.9-2.6-2.2-5.7-0.6c-2.6,1.4-4,2.5-2.8,4.6c3.7,6.8,28.8-15.8,36.5-1.6c6.2,11.4,1,15.5-17,25.3
		c-17.5,9.5-24.4,12.6-29.3,3.7C115.2,258.9,115,258.3,115,258.3z"/>
	<path class="st2" d="M199.1,226.3c-20.7,11.2-25.8,12.7-34.8-3.8c-9-16.5-4.9-20.1,15.7-31.3c20.7-11.2,25.9-12.7,34.8,3.8
		C223.9,211.5,219.8,215.1,199.1,226.3z M183.2,196.9c-5.2,2.8-4.5,5.2,0.8,14.9c5.3,9.8,7,11.6,12.2,8.8c5.2-2.8,4.5-5.2-0.8-15
		C190,195.9,188.3,194.1,183.2,196.9z"/>
	<path class="st2" d="M245.4,189.1l16-8.7l4.8,8.7l-35.6,19.3l-18.5-34l19.6-10.6L245.4,189.1z"/>
	<path class="st2" d="M270.4,186.9l-18.5-34l24.2-13.2c19.2-10.5,25.3-12.5,34,3.5c8.7,16,3.7,20-15.5,30.5L270.4,186.9z
		 M273.8,148.9l11.8,21.6l4.1-2.2c5.2-2.8,5.6-5.7,0.8-14.4c-4.8-8.8-7.4-10-12.6-7.2L273.8,148.9z"/>
	<path class="st2" d="M364.9,136.2c-20.7,11.2-25.8,12.7-34.8-3.8c-9-16.5-4.9-20.1,15.7-31.3c20.7-11.2,25.9-12.7,34.8,3.8
		C389.6,121.5,385.5,125,364.9,136.2z M348.9,106.8c-5.2,2.8-4.5,5.2,0.8,14.9c5.3,9.8,7,11.6,12.2,8.8s4.5-5.2-0.8-15
		C355.7,105.8,354.1,104,348.9,106.8z"/>
	<path class="st2" d="M436.4,80.7c5,9.3,1.2,16-16.7,25.8c-17.8,9.7-25.6,9.2-30.6,0l-11.8-21.7l19.1-10.4l11.8,21.7
		c2,3.6,3.8,5.9,7.9,3.7c4.1-2.2,3.2-5.1,1.3-8.7l-11.8-21.7L424.6,59L436.4,80.7z"/>
	<path class="st2" d="M477.5,41.6l-12.4,6.7l13.7,25.3l-19.6,10.6L445.5,59l-12.9,7l-4.8-8.7l44.9-24.4L477.5,41.6z"/>
</g>
</svg>
