<?xml version="1.0" encoding="utf-8"?>
<!-- Generator: Adobe Illustrator 19.2.1, SVG Export Plug-In . SVG Version: 6.00 Build 0)  -->
<svg version="1.1" id="Layer_1" xmlns="http://www.w3.org/2000/svg" xmlns:xlink="http://www.w3.org/1999/xlink" x="0px" y="0px"
	 viewBox="0 0 550 255.1" style="enable-background:new 0 0 550 255.1;" xml:space="preserve">
<style type="text/css">
	.st0{fill:#FFFFFF;}
</style>
<path class="st0" d="M361.6,76c-2.2-8.3-8.7-14.8-17-17c-15-4-75-4-75-4s-60.1,0-75,4c-8.3,2.2-14.8,8.7-17,17c-4,15-4,46.2-4,46.2
	s0,31.2,4,46.2c2.2,8.3,8.7,14.8,17,17c15,4,75,4,75,4s60.1,0,75-4c8.3-2.2,14.8-8.7,17-17c4-15,4-46.2,4-46.2S365.6,91,361.6,76z
	 M250.4,151.1V93.4l49.9,28.8L250.4,151.1z"/>
</svg>
