<?xml version="1.0" encoding="utf-8"?>
<!-- Generator: Adobe Illustrator 21.1.0, SVG Export Plug-In . SVG Version: 6.00 Build 0)  -->
<svg version="1.1" id="Layer_1" xmlns="http://www.w3.org/2000/svg" xmlns:xlink="http://www.w3.org/1999/xlink" x="0px" y="0px"
	 viewBox="0 0 572.4 324.9" style="enable-background:new 0 0 572.4 324.9;" xml:space="preserve">
<g>
	<path d="M160.9,162.5c17.6-17.2,28.6-41.2,28.6-67.7C189.5,42.5,147,0,94.7,0C42.5,0,0,42.5,0,94.7c0,26.5,11,50.5,28.6,67.7
		C11,179.7,0,203.7,0,230.2c0,52.2,42.5,94.7,94.7,94.7c52.2,0,94.7-42.5,94.7-94.7C189.5,203.7,178.5,179.7,160.9,162.5
		 M94.7,253.9c-13.1,0-23.7-10.6-23.7-23.7c0-13.1,10.6-23.7,23.7-23.7c13.1,0,23.7,10.6,23.7,23.7
		C118.4,243.2,107.8,253.9,94.7,253.9 M94.7,71.1c13.1,0,23.7,10.6,23.7,23.7c0,13.1-10.6,23.7-23.7,23.7
		c-13.1,0-23.7-10.6-23.7-23.7C71.1,81.7,81.7,71.1,94.7,71.1"/>
	<path d="M359.9,162.5c17.6-17.2,28.6-41.2,28.6-67.7c0-52.2-42.5-94.7-94.7-94.7C241.5,0,199,42.5,199,94.7
		c0,26.5,11,50.5,28.6,67.7c-17.6,17.2-28.6,41.2-28.6,67.7c0,52.2,42.5,94.7,94.7,94.7c52.2,0,94.7-42.5,94.7-94.7
		C388.4,203.7,377.5,179.7,359.9,162.5 M293.7,253.9c-13.1,0-23.7-10.6-23.7-23.7c0-13.1,10.6-23.7,23.7-23.7
		c13.1,0,23.7,10.6,23.7,23.7C317.4,243.2,306.8,253.9,293.7,253.9 M293.7,71.1c13.1,0,23.7,10.6,23.7,23.7
		c0,13.1-10.6,23.7-23.7,23.7c-13.1,0-23.7-10.6-23.7-23.7C270,81.7,280.6,71.1,293.7,71.1"/>
</g>
<path d="M570.8,147.7L489.3,40.6c-3.5-4.8-10.6-4.8-14.1,0l-81.5,107.1c-4.2,5.8-0.1,13.9,7.1,13.9H446c2.1,0,3.8,1.7,3.8,3.8v123.1
	c0,5.8,4.7,10.4,10.4,10.4h43.5c5.8,0,10.4-4.7,10.4-10.4V165.3c0-2.1,1.7-3.8,3.8-3.8h45.8C570.8,161.6,575,153.5,570.8,147.7z"/>
</svg>
