<?xml version="1.0" encoding="utf-8"?>
<!-- Generator: Adobe Illustrator 19.2.1, SVG Export Plug-In . SVG Version: 6.00 Build 0)  -->
<svg version="1.1" id="Layer_1" xmlns="http://www.w3.org/2000/svg" xmlns:xlink="http://www.w3.org/1999/xlink" x="0px" y="0px"
	 viewBox="0 0 2000.5 1149" style="enable-background:new 0 0 2000.5 1149;" xml:space="preserve">
	 <style>
	 	path{
	 	fill:white;
	 	}
	 </style>
<g>
	<g>
		<g>
			<path d="M569,574.5c62.3-60.9,101-145.7,101-239.5C670,150.3,519.8,0,335,0S0,150.3,0,335c0,93.8,38.8,178.6,101,239.5
				C38.8,635.3,0,720.2,0,813.9c0,184.7,150.3,335,335,335s335-150.3,335-335C670,720.2,631.3,635.3,569,574.5z M335,897.7
				c-46.2,0-83.8-37.6-83.8-83.8c0-46.2,37.6-83.8,83.8-83.8s83.8,37.6,83.8,83.8C418.8,860.1,381.2,897.7,335,897.7z M335,251.3
				c46.2,0,83.8,37.6,83.8,83.8s-37.6,83.8-83.8,83.8s-83.8-37.6-83.8-83.8S288.8,251.3,335,251.3z"/>
		</g>
		<g>
			<path d="M1272.6,574.5c62.3-60.9,101-145.7,101-239.5c0-184.7-150.3-335-335-335s-335,150.3-335,335c0,93.8,38.8,178.6,101,239.5
				c-62.3,60.9-101,145.7-101,239.5c0,184.7,150.3,335,335,335s335-150.3,335-335C1373.6,720.2,1334.8,635.3,1272.6,574.5z
				 M1038.6,897.7c-46.2,0-83.8-37.6-83.8-83.8c0-46.2,37.6-83.8,83.8-83.8c46.2,0,83.8,37.6,83.8,83.8
				C1122.3,860.1,1084.8,897.7,1038.6,897.7z M1038.6,251.3c46.2,0,83.8,37.6,83.8,83.8s-37.6,83.8-83.8,83.8
				c-46.2,0-83.8-37.6-83.8-83.8S992.4,251.3,1038.6,251.3z"/>
		</g>
	</g>
	<path d="M1993.6,539.9l-309.3-374c-5.7-6.9-14.3-11-23.3-11c-0.2,0-0.5,0-0.7,0c-9.2,0.2-17.9,4.7-23.4,12l-281.3,374.2
		c-6.9,9.1-8,21.3-2.9,31.6c5.1,10.2,15.6,16.6,27,16.6c0,0,0,0,0,0l190.9,0l-1.2,436.1c0,8,3.2,16.1,8.8,21.7
		c5.7,5.7,13.4,9.2,21.4,9.2c0,0,0,0,0,0l148-0.4c16.6,0,30.1-13.6,30.2-30.3l1.2-436.3l191.1-0.1c11.7,0,22.3-6.8,27.3-17.4
		C2002.6,561.4,2001.1,548.9,1993.6,539.9z"/>
</g>
</svg>
