<?xml version="1.0" encoding="utf-8"?>
<!-- Generator: Adobe Illustrator 15.0.0, SVG Export Plug-In  -->
<!DOCTYPE svg PUBLIC "-//W3C//DTD SVG 1.1//EN" "http://www.w3.org/Graphics/SVG/1.1/DTD/svg11.dtd" [
	<!ENTITY ns_flows "http://ns.adobe.com/Flows/1.0/">
]>
<svg version="1.1"
	 xmlns="http://www.w3.org/2000/svg" xmlns:xlink="http://www.w3.org/1999/xlink" xmlns:a="http://ns.adobe.com/AdobeSVGViewerExtensions/3.0/"
	 x="0px" y="0px" width="93px" height="128px" viewBox="-0.468 -0.737 93 128"
	 overflow="visible" enable-background="new -0.468 -0.737 93 128" xml:space="preserve">
<defs>
</defs>
<path fill="#ffffff" d="M91.158,54.049L47.381,1.333C46.569,0.349,45.361,0,44.087,0h-0.099c-1.309,0-2.532,0.441-3.318,1.488
	L0.858,54.35c-0.975,1.295-1.131,3.433-0.407,4.882S2.655,62,4.275,62h0.002l27.029-0.47l-0.172,61.498
	c-0.003,1.137,0.446,2.07,1.249,2.874c0.802,0.804,1.891,1.098,3.026,1.098h0.002l20.954,0.034c2.356-0.001,4.266-1.886,4.273-4.242
	l0.171-61.744l27.056-0.006c1.655-0.001,3.161-0.955,3.866-2.453C92.437,57.091,92.212,55.325,91.158,54.049"/>
</svg>
